M48
; DRILL file {KiCad 8.0.4} date 2025-02-22T00:19:51+0800
; FORMAT={-:-/ absolute / inch / decimal}
; #@! TF.CreationDate,2025-02-22T00:19:51+08:00
; #@! TF.GenerationSoftware,Kicad,Pcbnew,8.0.4
; #@! TF.FileFunction,Plated,1,2,PTH
FMAT,2
INCH
; #@! TA.AperFunction,Plated,PTH,ComponentDrill
T1C0.0079
; #@! TA.AperFunction,Plated,PTH,ViaDrill
T2C0.0157
; #@! TA.AperFunction,Plated,PTH,ComponentDrill
T3C0.0394
%
G90
G05
T1
X8.0209Y-2.267
X8.0209Y-2.3221
X8.0485Y-2.3497
X8.0485Y-2.2946
X8.0485Y-2.2394
X8.0761Y-2.3221
X8.0761Y-2.267
X8.1036Y-2.3497
X8.1036Y-2.2394
X8.1036Y-2.2946
X8.1312Y-2.267
X8.1312Y-2.3221
T2
X6.32Y-1.87
X6.41Y-1.87
X7.01Y-1.91
X7.0116Y-1.9832
X7.73Y-2.65
X7.78Y-2.65
X8.03Y-1.78
X8.03Y-1.84
X8.07Y-4.64
X8.13Y-1.98
X8.16Y-4.06
X8.26Y-4.77
X8.29Y-2.06
X8.3Y-3.16
X8.38Y-2.07
X8.38Y-3.16
X8.45Y-3.56
X8.52Y-3.49
T3
X7.1838Y-4.6668
X7.2838Y-4.6668
X7.3838Y-4.6668
X7.4838Y-4.6668
X7.5838Y-4.6668
X7.6838Y-4.6668
X7.7838Y-4.6668
X8.17Y-4.5804
X8.17Y-4.6804
X8.17Y-4.7804
X8.17Y-4.8804
M30
