%TF.GenerationSoftware,KiCad,Pcbnew,8.0.4*%
%TF.CreationDate,2025-02-22T00:19:56+08:00*%
%TF.ProjectId,maibadge_ver2,6d616962-6164-4676-955f-766572322e6b,rev?*%
%TF.SameCoordinates,Original*%
%TF.FileFunction,Profile,NP*%
%FSLAX46Y46*%
G04 Gerber Fmt 4.6, Leading zero omitted, Abs format (unit mm)*
G04 Created by KiCad (PCBNEW 8.0.4) date 2025-02-22 00:19:56*
%MOMM*%
%LPD*%
G01*
G04 APERTURE LIST*
%TA.AperFunction,Profile*%
%ADD10C,0.050000*%
%TD*%
%TA.AperFunction,Profile*%
%ADD11C,0.100000*%
%TD*%
G04 APERTURE END LIST*
D10*
X214867276Y-38685278D02*
X215475984Y-38888181D01*
X171581280Y-134948402D02*
X170638763Y-134395692D01*
X215296712Y-129224201D02*
X214753282Y-129353667D01*
X221463305Y-47259841D02*
X221461123Y-48487470D01*
X160810932Y-126406911D02*
X160173860Y-125647662D01*
X172704154Y-135355662D02*
X171581280Y-134948402D01*
X160115649Y-42633390D02*
X160370914Y-42142496D01*
X166794398Y-38371106D02*
X205148398Y-38371106D01*
X165868198Y-38518769D02*
X166339456Y-38414044D01*
X213038426Y-129698384D02*
X212798433Y-129781291D01*
X176174593Y-135408024D02*
X175746970Y-135469113D01*
X190778314Y-129699836D02*
X189606713Y-129699836D01*
X202386881Y-134725768D02*
X202042164Y-134551228D01*
X159487305Y-44387518D02*
X159788386Y-43392640D01*
X215993059Y-39097629D02*
X216575587Y-39352894D01*
X173856119Y-135562202D02*
X172704154Y-135355662D01*
X198848081Y-129899734D02*
X198753305Y-129843009D01*
X164843479Y-38869136D02*
X165295102Y-38672779D01*
X215475984Y-38888181D02*
X215993059Y-39097629D01*
X193848038Y-129726017D02*
X192728799Y-129706381D01*
X161024513Y-126617022D02*
X160810932Y-126406911D01*
X221251046Y-122636554D02*
X221089262Y-122999665D01*
X212444990Y-130601629D02*
X212174044Y-131290554D01*
X210774056Y-133508350D02*
X210590789Y-133691618D01*
X216575587Y-39352894D02*
X216981392Y-39575432D01*
X212798433Y-129781291D02*
X212654438Y-129886015D01*
X175746970Y-135469113D02*
X175057537Y-135582565D01*
X177693092Y-134823315D02*
X177312013Y-135026945D01*
X162840632Y-39890196D02*
X163164622Y-39684020D01*
X204071193Y-135389020D02*
X203757021Y-135284296D01*
X218915936Y-40787629D02*
X219691549Y-41465063D01*
X215934875Y-128978754D02*
X215296712Y-129224201D01*
X160173860Y-125647662D02*
X159698239Y-124980046D01*
X159427701Y-124574240D02*
X159292433Y-124286249D01*
X181483521Y-129883831D02*
X181393342Y-129936193D01*
X159078621Y-123479001D02*
X159034986Y-122894292D01*
X162015930Y-40469451D02*
X162222105Y-40322183D01*
X200650207Y-133460352D02*
X200301127Y-133002184D01*
D11*
X207090737Y-135467563D02*
X206300943Y-135598468D01*
D10*
X199716418Y-132133847D02*
X199489516Y-131697497D01*
X206164398Y-38371106D02*
X209466398Y-38371106D01*
X210658678Y-38371106D02*
X211777916Y-38384196D01*
X160729788Y-41618143D02*
X161093049Y-41303971D01*
X214291293Y-38534737D02*
X214867276Y-38685278D01*
X210363887Y-133874885D02*
X210001716Y-134184693D01*
X205148398Y-38371106D02*
X206164398Y-38371106D01*
X181050080Y-131085248D02*
X180605002Y-132071400D01*
X211568214Y-132378203D02*
X211306403Y-132797100D01*
X159029137Y-113765216D02*
X159029137Y-108195205D01*
X177312013Y-135026945D02*
X176174593Y-135408024D01*
X200955652Y-133717799D02*
X200650207Y-133460352D01*
X202845049Y-134948306D02*
X202386881Y-134725768D01*
X217752969Y-40057472D02*
X217929691Y-40122924D01*
X181288618Y-130029281D02*
X181242074Y-130154368D01*
X220526068Y-42741387D02*
X220781333Y-43418821D01*
X167569767Y-129793651D02*
X167214868Y-129642383D01*
X166091994Y-129470752D02*
X165047662Y-129208942D01*
X182924010Y-129693291D02*
X182324222Y-129738380D01*
X221089262Y-122999665D02*
X220726000Y-123952000D01*
X219691549Y-41465063D02*
X220192260Y-42113043D01*
X159251676Y-45186039D02*
X159487305Y-44387518D01*
X221448033Y-49805248D02*
X221426215Y-51499425D01*
X168317380Y-131821226D02*
X168058479Y-131262697D01*
X220192260Y-42113043D02*
X220526068Y-42741387D01*
X163164622Y-39684020D02*
X163459158Y-39507299D01*
X203202856Y-135101029D02*
X202845049Y-134948306D01*
X175057537Y-135582565D02*
X174248834Y-135576747D01*
X161799937Y-40655990D02*
X162015930Y-40469451D01*
X179290134Y-133741167D02*
X178356344Y-134462599D01*
X168890453Y-132717198D02*
X168596644Y-132321574D01*
X199489516Y-131697497D02*
X199306248Y-131309145D01*
X159035682Y-103973517D02*
X159042228Y-99116939D01*
X206100222Y-135615922D02*
X205310428Y-135598468D01*
X218249214Y-40321581D02*
X218915936Y-40787629D01*
X217537739Y-39941966D02*
X217752969Y-40057472D01*
X220431464Y-124609797D02*
X220009295Y-125483589D01*
X199306248Y-131309145D02*
X199127345Y-130872795D01*
X161545224Y-127131915D02*
X161024513Y-126617022D01*
X221386943Y-58712294D02*
X221373853Y-60021345D01*
X164509672Y-39016404D02*
X164843479Y-38869136D01*
X181393342Y-129936193D02*
X181288618Y-130029281D01*
X205310428Y-135598468D02*
X205105343Y-135585378D01*
X214753282Y-129353667D02*
X214181664Y-129488936D01*
X165047662Y-129208942D02*
X164029512Y-128824954D01*
X194660340Y-129725194D02*
X193848038Y-129726017D01*
X185234484Y-129686746D02*
X184233060Y-129680200D01*
X221426215Y-51499425D02*
X221417488Y-53113921D01*
X197208626Y-129773193D02*
X195611584Y-129742648D01*
X159034986Y-122894292D02*
X159003208Y-118538633D01*
X201296006Y-134005790D02*
X200955652Y-133717799D01*
X216981392Y-39575432D02*
X217537739Y-39941966D01*
X221373853Y-60021345D02*
X221382580Y-61919468D01*
X180101745Y-132836467D02*
X179290134Y-133741167D01*
X192728799Y-129706381D02*
X192192089Y-129712927D01*
X159292433Y-124286249D02*
X159187709Y-123976440D01*
X189606713Y-129699836D02*
X188055488Y-129693291D01*
X181242074Y-130154368D02*
X181178076Y-130695442D01*
X159698239Y-124980046D02*
X159427701Y-124574240D01*
X213723496Y-129567479D02*
X213038426Y-129698384D01*
X199127345Y-130872795D02*
X198957168Y-130244451D01*
X159187709Y-123976440D02*
X159078621Y-123479001D01*
X159040963Y-47617996D02*
X159114225Y-46305278D01*
X207300185Y-135423928D02*
X207090737Y-135467563D01*
X216818484Y-128546767D02*
X216366861Y-128792214D01*
X205105343Y-135585378D02*
X204071193Y-135389020D01*
X211921657Y-131771677D02*
X211568214Y-132378203D01*
X217967176Y-127771155D02*
X217348649Y-128242413D01*
X208657758Y-134930852D02*
X208212157Y-135135937D01*
X159036947Y-54034017D02*
X159008386Y-49112458D01*
X212174044Y-131290554D02*
X211921657Y-131771677D01*
X159008386Y-49112458D02*
X159040963Y-47617996D01*
X200301127Y-133002184D02*
X199969501Y-132526562D01*
X192192089Y-129712927D02*
X190778314Y-129699836D01*
X170638763Y-134395692D02*
X170016237Y-133930252D01*
X211040230Y-133163634D02*
X210774056Y-133508350D01*
X214181664Y-129488936D02*
X213723496Y-129567479D01*
X162208477Y-127739896D02*
X161545224Y-127131915D01*
X160370914Y-42142496D02*
X160729788Y-41618143D01*
X220726000Y-123952000D02*
X220431464Y-124609797D01*
X164029512Y-128824954D02*
X163060814Y-128327515D01*
X161348314Y-41058524D02*
X161613397Y-40822894D01*
X182324222Y-129738380D02*
X181687151Y-129831469D01*
X184233060Y-129680200D02*
X182924010Y-129693291D01*
X209582820Y-134459594D02*
X209163924Y-134708314D01*
X221095505Y-44331884D02*
X221272227Y-45392215D01*
X159003208Y-118538633D02*
X159029137Y-113765216D01*
X188055488Y-129693291D02*
X186759528Y-129686746D01*
X168058479Y-131262697D02*
X167904302Y-130800166D01*
X167904302Y-130800166D02*
X167767579Y-130035099D01*
X199969501Y-132526562D02*
X199716418Y-132133847D01*
X218948964Y-126916999D02*
X218526795Y-127339168D01*
X209163924Y-134708314D02*
X208657758Y-134930852D01*
X220781333Y-43418821D02*
X221095505Y-44331884D01*
X159788386Y-43392640D02*
X160115649Y-42633390D01*
X159029137Y-108195205D02*
X159035682Y-103973517D01*
X161613397Y-40822894D02*
X161799937Y-40655990D01*
X203757021Y-135284296D02*
X203202856Y-135101029D01*
X211306403Y-132797100D02*
X211040230Y-133163634D01*
X162222105Y-40322183D02*
X162497006Y-40106189D01*
X206300943Y-135598468D02*
X206100222Y-135615922D01*
D11*
X221225777Y-73337124D02*
X221211835Y-92605797D01*
D10*
X202042164Y-134551228D02*
X201671267Y-134276327D01*
X221211835Y-92605797D02*
X221251046Y-122636554D01*
X163783148Y-39340395D02*
X164146410Y-39173491D01*
X210590789Y-133691618D02*
X210363887Y-133874885D01*
X221272227Y-45392215D02*
X221409678Y-46216917D01*
D11*
X221382580Y-61919468D02*
X221225777Y-73337124D01*
D10*
X221461123Y-48487470D02*
X221448033Y-49805248D01*
X186759528Y-129686746D02*
X185234484Y-129686746D01*
X212654438Y-129886015D02*
X212444990Y-130601629D01*
X163060814Y-128327515D02*
X162208477Y-127739896D01*
X212988788Y-38416922D02*
X213741492Y-38443103D01*
X161093049Y-41303971D02*
X161348314Y-41058524D01*
X166339456Y-38414044D02*
X166794398Y-38371106D01*
X164146410Y-39173491D02*
X164509672Y-39016404D01*
X170016237Y-133930252D02*
X169533343Y-133493901D01*
X216366861Y-128792214D02*
X215934875Y-128978754D01*
X218526795Y-127339168D02*
X217967176Y-127771155D01*
X181178076Y-130695442D02*
X181050080Y-131085248D01*
X210001716Y-134184693D02*
X209582820Y-134459594D01*
X181687151Y-129831469D02*
X181483521Y-129883831D01*
X211777916Y-38384196D02*
X212988788Y-38416922D01*
X169533343Y-133493901D02*
X168890453Y-132717198D01*
X167214868Y-129642383D02*
X166091994Y-129470752D01*
X195611584Y-129742648D02*
X194660340Y-129725194D01*
X221395670Y-56561087D02*
X221386943Y-58712294D01*
X220009295Y-125483589D02*
X219479129Y-126210112D01*
X219479129Y-126210112D02*
X218948964Y-126916999D01*
X167767579Y-130035099D02*
X167569767Y-129793651D01*
X213741492Y-38443103D02*
X214291293Y-38534737D01*
X159042228Y-99116939D02*
X159036947Y-54034017D01*
X198753305Y-129843009D02*
X197208626Y-129773193D01*
X221417488Y-53113921D02*
X221404398Y-54418608D01*
X221404398Y-54418608D02*
X221395670Y-56561087D01*
X174248834Y-135576747D02*
X173856119Y-135562202D01*
X180605002Y-132071400D02*
X180101745Y-132836467D01*
X198957168Y-130244451D02*
X198848081Y-129899734D01*
X217929691Y-40122924D02*
X218249214Y-40321581D01*
X159114225Y-46305278D02*
X159251676Y-45186039D01*
X178356344Y-134462599D02*
X177693092Y-134823315D01*
X162497006Y-40106189D02*
X162840632Y-39890196D01*
X168596644Y-132321574D02*
X168317380Y-131821226D01*
X163459158Y-39507299D02*
X163783148Y-39340395D01*
X201671267Y-134276327D02*
X201296006Y-134005790D01*
X209466398Y-38371106D02*
X210658678Y-38371106D01*
X165295102Y-38672779D02*
X165868198Y-38518769D01*
X208212157Y-135135937D02*
X207300185Y-135423928D01*
X217348649Y-128242413D02*
X216818484Y-128546767D01*
X221409678Y-46216917D02*
X221463305Y-47259841D01*
M02*
