%TF.GenerationSoftware,KiCad,Pcbnew,8.0.4*%
%TF.CreationDate,2025-02-22T00:19:56+08:00*%
%TF.ProjectId,maibadge_ver2,6d616962-6164-4676-955f-766572322e6b,rev?*%
%TF.SameCoordinates,Original*%
%TF.FileFunction,Soldermask,Bot*%
%TF.FilePolarity,Negative*%
%FSLAX46Y46*%
G04 Gerber Fmt 4.6, Leading zero omitted, Abs format (unit mm)*
G04 Created by KiCad (PCBNEW 8.0.4) date 2025-02-22 00:19:56*
%MOMM*%
%LPD*%
G01*
G04 APERTURE LIST*
G04 Aperture macros list*
%AMRoundRect*
0 Rectangle with rounded corners*
0 $1 Rounding radius*
0 $2 $3 $4 $5 $6 $7 $8 $9 X,Y pos of 4 corners*
0 Add a 4 corners polygon primitive as box body*
4,1,4,$2,$3,$4,$5,$6,$7,$8,$9,$2,$3,0*
0 Add four circle primitives for the rounded corners*
1,1,$1+$1,$2,$3*
1,1,$1+$1,$4,$5*
1,1,$1+$1,$6,$7*
1,1,$1+$1,$8,$9*
0 Add four rect primitives between the rounded corners*
20,1,$1+$1,$2,$3,$4,$5,0*
20,1,$1+$1,$4,$5,$6,$7,0*
20,1,$1+$1,$6,$7,$8,$9,0*
20,1,$1+$1,$8,$9,$2,$3,0*%
%AMFreePoly0*
4,1,9,0.499924,-0.600102,-0.050064,-0.600103,-0.050064,-0.350114,-0.500076,-0.350115,-0.500076,0.199924,-0.050064,0.199924,-0.050064,0.599898,0.499924,0.599898,0.499924,-0.600102,0.499924,-0.600102,$1*%
%AMFreePoly1*
4,1,5,0.349911,-0.599950,-0.350088,-0.599949,-0.350089,0.600051,0.349911,0.600051,0.349911,-0.599950,0.349911,-0.599950,$1*%
%AMFreePoly2*
4,1,5,0.224994,-0.599923,-0.225019,-0.599924,-0.225019,0.600076,0.224994,0.600076,0.224994,-0.599923,0.224994,-0.599923,$1*%
%AMFreePoly3*
4,1,9,0.050013,0.600000,0.050013,0.200127,0.500051,0.200152,0.500000,-0.349835,0.049936,-0.349784,0.050013,-0.599897,-0.500076,-0.599849,-0.500077,0.600102,0.050013,0.600000,0.050013,0.600000,$1*%
%AMFreePoly4*
4,1,123,0.971755,0.948997,1.016180,0.945872,1.060427,0.940665,1.104369,0.933401,1.147930,0.924054,1.190983,0.912700,1.233477,0.899340,1.275286,0.883998,1.316332,0.866701,1.356541,0.847523,1.395784,0.826467,1.434011,0.803581,1.471120,0.778943,1.507036,0.752604,1.541656,0.724613,1.574956,0.694996,1.606807,0.663881,1.637186,0.631293,1.665989,0.597333,1.693167,0.562052,
1.718669,0.525527,1.742418,0.487859,1.764389,0.449098,1.784531,0.409373,1.802769,0.330023,3.500102,0.330023,3.500102,-0.329972,1.802769,-0.329972,1.784531,-0.409271,1.764389,-0.448997,1.742418,-0.487757,1.718669,-0.525425,1.693167,-0.561951,1.665989,-0.597231,1.637186,-0.631191,1.606807,-0.663780,1.574956,-0.694895,1.541656,-0.724511,1.507036,-0.752502,1.471120,-0.778842,
1.434011,-0.803480,1.395784,-0.826365,1.356541,-0.847422,1.316332,-0.866599,1.275286,-0.883896,1.233477,-0.899238,1.190983,-0.912598,1.147930,-0.923952,1.104369,-0.933299,1.060427,-0.940564,1.016180,-0.945771,0.971755,-0.948895,0.927229,-0.949962,-0.926975,-0.949962,-0.971501,-0.948895,-1.015926,-0.945771,-1.060173,-0.940564,-1.104115,-0.933299,-1.147676,-0.923952,-1.190729,-0.912598,
-1.233223,-0.899238,-1.275032,-0.883896,-1.316078,-0.866599,-1.356287,-0.847422,-1.395530,-0.826365,-1.433757,-0.803480,-1.470866,-0.778842,-1.506782,-0.752502,-1.541402,-0.724511,-1.574702,-0.694895,-1.606553,-0.663780,-1.636932,-0.631191,-1.665735,-0.597231,-1.692913,-0.561951,-1.718415,-0.525425,-1.742164,-0.487757,-1.764135,-0.448997,-1.784277,-0.409271,-1.802515,-0.368631,-1.818847,-0.327203,
-1.833198,-0.285039,-1.845568,-0.242240,-1.855906,-0.198908,-1.864211,-0.155169,-1.870460,-0.111049,-1.874625,-0.066701,-1.876708,-0.022225,-1.876708,0.022327,-1.874625,0.066802,-1.870460,0.111151,-1.864211,0.155271,-1.855906,0.199009,-1.845568,0.242342,-1.833198,0.285141,-1.818847,0.327305,-1.802515,0.368733,-1.784277,0.409373,-1.764135,0.449098,-1.742164,0.487859,-1.718415,0.525527,
-1.692913,0.562052,-1.665735,0.597333,-1.636932,0.631293,-1.606553,0.663881,-1.574702,0.694996,-1.541402,0.724613,-1.506782,0.752604,-1.470866,0.778943,-1.433757,0.803581,-1.395530,0.826467,-1.356287,0.847523,-1.316078,0.866701,-1.275032,0.883998,-1.233223,0.899340,-1.190729,0.912700,-1.147676,0.924054,-1.104115,0.933401,-1.060173,0.940665,-1.015926,0.945872,-0.971501,0.948997,
-0.926975,0.950064,0.927229,0.950064,0.971755,0.948997,0.971755,0.948997,$1*%
G04 Aperture macros list end*
%ADD10C,0.100000*%
%ADD11R,1.700000X1.700000*%
%ADD12O,1.700000X1.700000*%
%ADD13FreePoly0,60.000000*%
%ADD14FreePoly1,60.000000*%
%ADD15FreePoly2,60.000000*%
%ADD16FreePoly3,60.000000*%
%ADD17RoundRect,0.250000X0.450000X-0.350000X0.450000X0.350000X-0.450000X0.350000X-0.450000X-0.350000X0*%
%ADD18FreePoly0,105.000000*%
%ADD19FreePoly1,105.000000*%
%ADD20FreePoly2,105.000000*%
%ADD21FreePoly3,105.000000*%
%ADD22FreePoly0,195.000000*%
%ADD23FreePoly1,195.000000*%
%ADD24FreePoly2,195.000000*%
%ADD25FreePoly3,195.000000*%
%ADD26R,0.750000X1.000000*%
%ADD27R,1.575006X0.672009*%
%ADD28FreePoly4,180.000000*%
%ADD29R,1.000000X0.750000*%
%ADD30RoundRect,0.250000X0.350000X0.450000X-0.350000X0.450000X-0.350000X-0.450000X0.350000X-0.450000X0*%
%ADD31R,0.900000X1.500000*%
%ADD32R,1.500000X0.900000*%
%ADD33C,0.600000*%
%ADD34R,3.900000X3.900000*%
%ADD35R,1.800000X1.800000*%
%ADD36FreePoly0,150.000000*%
%ADD37FreePoly1,150.000000*%
%ADD38FreePoly2,150.000000*%
%ADD39FreePoly3,150.000000*%
%ADD40FreePoly0,285.000000*%
%ADD41FreePoly1,285.000000*%
%ADD42FreePoly2,285.000000*%
%ADD43FreePoly3,285.000000*%
%ADD44RoundRect,0.250000X-0.450000X0.350000X-0.450000X-0.350000X0.450000X-0.350000X0.450000X0.350000X0*%
%ADD45FreePoly0,15.000000*%
%ADD46FreePoly1,15.000000*%
%ADD47FreePoly2,15.000000*%
%ADD48FreePoly3,15.000000*%
%ADD49FreePoly0,325.000000*%
%ADD50FreePoly1,325.000000*%
%ADD51FreePoly2,325.000000*%
%ADD52FreePoly3,325.000000*%
%ADD53FreePoly0,240.000000*%
%ADD54FreePoly1,240.000000*%
%ADD55FreePoly2,240.000000*%
%ADD56FreePoly3,240.000000*%
G04 APERTURE END LIST*
D10*
X181348268Y-110646058D02*
X181791786Y-110850758D01*
X182440005Y-111116869D01*
X183054108Y-111342040D01*
X183804677Y-111628621D01*
X184480190Y-111846969D01*
X184930531Y-112003906D01*
X185312639Y-112113080D01*
X185537810Y-112167667D01*
X185810745Y-112222254D01*
X185878978Y-112270017D01*
X185074641Y-115599816D01*
X184944997Y-116016041D01*
X184815353Y-116480029D01*
X184726649Y-116739317D01*
X184624299Y-116875784D01*
X184583359Y-116937194D01*
X184010197Y-116821197D01*
X183089043Y-116534616D01*
X182297534Y-116268505D01*
X181778958Y-116091098D01*
X180714515Y-115681696D01*
X180168646Y-115442879D01*
X179731951Y-115245001D01*
X179104202Y-114958420D01*
X178763034Y-114787836D01*
X178626567Y-114665016D01*
X178565157Y-114569489D01*
X178606097Y-114433022D01*
X179247493Y-113361754D01*
X180154999Y-111846969D01*
X180897926Y-110714291D01*
X181027570Y-110605118D01*
X181136744Y-110605118D01*
X181348268Y-110646058D01*
G36*
X181348268Y-110646058D02*
G01*
X181791786Y-110850758D01*
X182440005Y-111116869D01*
X183054108Y-111342040D01*
X183804677Y-111628621D01*
X184480190Y-111846969D01*
X184930531Y-112003906D01*
X185312639Y-112113080D01*
X185537810Y-112167667D01*
X185810745Y-112222254D01*
X185878978Y-112270017D01*
X185074641Y-115599816D01*
X184944997Y-116016041D01*
X184815353Y-116480029D01*
X184726649Y-116739317D01*
X184624299Y-116875784D01*
X184583359Y-116937194D01*
X184010197Y-116821197D01*
X183089043Y-116534616D01*
X182297534Y-116268505D01*
X181778958Y-116091098D01*
X180714515Y-115681696D01*
X180168646Y-115442879D01*
X179731951Y-115245001D01*
X179104202Y-114958420D01*
X178763034Y-114787836D01*
X178626567Y-114665016D01*
X178565157Y-114569489D01*
X178606097Y-114433022D01*
X179247493Y-113361754D01*
X180154999Y-111846969D01*
X180897926Y-110714291D01*
X181027570Y-110605118D01*
X181136744Y-110605118D01*
X181348268Y-110646058D01*
G37*
X171693074Y-99204145D02*
X172235531Y-100606346D01*
X172634698Y-101558204D01*
X173013394Y-102336067D01*
X173821962Y-103758737D01*
X173842432Y-103871323D01*
X172880339Y-104546835D01*
X171734015Y-105293993D01*
X170086173Y-106368672D01*
X169779122Y-106522197D01*
X169492541Y-106112796D01*
X169134315Y-105488458D01*
X168735149Y-104761771D01*
X168366687Y-103983908D01*
X167967521Y-103154870D01*
X167363653Y-101691260D01*
X166833142Y-100045294D01*
X168859680Y-99446545D01*
X171531024Y-98709622D01*
X171693074Y-99204145D01*
G36*
X171693074Y-99204145D02*
G01*
X172235531Y-100606346D01*
X172634698Y-101558204D01*
X173013394Y-102336067D01*
X173821962Y-103758737D01*
X173842432Y-103871323D01*
X172880339Y-104546835D01*
X171734015Y-105293993D01*
X170086173Y-106368672D01*
X169779122Y-106522197D01*
X169492541Y-106112796D01*
X169134315Y-105488458D01*
X168735149Y-104761771D01*
X168366687Y-103983908D01*
X167967521Y-103154870D01*
X167363653Y-101691260D01*
X166833142Y-100045294D01*
X168859680Y-99446545D01*
X171531024Y-98709622D01*
X171693074Y-99204145D01*
G37*
X195998454Y-70004237D02*
X196692269Y-70227534D01*
X197481782Y-70482730D01*
X198335095Y-70769826D01*
X199563227Y-71256294D01*
X200177293Y-71519465D01*
X200879082Y-71862385D01*
X201389475Y-72109606D01*
X201772269Y-72316953D01*
X201939742Y-72420627D01*
X202003541Y-72532275D01*
X202019490Y-72659873D01*
X201891892Y-72938994D01*
X201349600Y-73919905D01*
X200552112Y-75315509D01*
X200081594Y-76065148D01*
X199682850Y-76623390D01*
X199523352Y-76623390D01*
X198406869Y-76081098D01*
X197521657Y-75690328D01*
X196213776Y-75156011D01*
X195464137Y-74940690D01*
X194905895Y-74749292D01*
X194602850Y-74653594D01*
X194475252Y-74518021D01*
X194451327Y-74350548D01*
X195129192Y-71256294D01*
X195392363Y-69908539D01*
X195998454Y-70004237D01*
G36*
X195998454Y-70004237D02*
G01*
X196692269Y-70227534D01*
X197481782Y-70482730D01*
X198335095Y-70769826D01*
X199563227Y-71256294D01*
X200177293Y-71519465D01*
X200879082Y-71862385D01*
X201389475Y-72109606D01*
X201772269Y-72316953D01*
X201939742Y-72420627D01*
X202003541Y-72532275D01*
X202019490Y-72659873D01*
X201891892Y-72938994D01*
X201349600Y-73919905D01*
X200552112Y-75315509D01*
X200081594Y-76065148D01*
X199682850Y-76623390D01*
X199523352Y-76623390D01*
X198406869Y-76081098D01*
X197521657Y-75690328D01*
X196213776Y-75156011D01*
X195464137Y-74940690D01*
X194905895Y-74749292D01*
X194602850Y-74653594D01*
X194475252Y-74518021D01*
X194451327Y-74350548D01*
X195129192Y-71256294D01*
X195392363Y-69908539D01*
X195998454Y-70004237D01*
G37*
X210102659Y-98677205D02*
X211889032Y-99243422D01*
X212542973Y-99466718D01*
X212933742Y-99586342D01*
X213149064Y-99737864D01*
X213212863Y-99777739D01*
X213252737Y-99873437D01*
X213212863Y-100072810D01*
X213109189Y-100583202D01*
X212822094Y-101380690D01*
X212439299Y-102377551D01*
X211952832Y-103549858D01*
X211601937Y-104259623D01*
X211322816Y-104881664D01*
X210979896Y-105527629D01*
X210772549Y-105838649D01*
X210453554Y-106253343D01*
X209241372Y-105384081D01*
X207454998Y-104092150D01*
X206633585Y-103486059D01*
X207056254Y-102529073D01*
X207606521Y-101452464D01*
X208021215Y-100543328D01*
X208404009Y-99378995D01*
X208611356Y-98756954D01*
X208762879Y-98517708D01*
X208906427Y-98382135D01*
X209073899Y-98366185D01*
X210102659Y-98677205D01*
G36*
X210102659Y-98677205D02*
G01*
X211889032Y-99243422D01*
X212542973Y-99466718D01*
X212933742Y-99586342D01*
X213149064Y-99737864D01*
X213212863Y-99777739D01*
X213252737Y-99873437D01*
X213212863Y-100072810D01*
X213109189Y-100583202D01*
X212822094Y-101380690D01*
X212439299Y-102377551D01*
X211952832Y-103549858D01*
X211601937Y-104259623D01*
X211322816Y-104881664D01*
X210979896Y-105527629D01*
X210772549Y-105838649D01*
X210453554Y-106253343D01*
X209241372Y-105384081D01*
X207454998Y-104092150D01*
X206633585Y-103486059D01*
X207056254Y-102529073D01*
X207606521Y-101452464D01*
X208021215Y-100543328D01*
X208404009Y-99378995D01*
X208611356Y-98756954D01*
X208762879Y-98517708D01*
X208906427Y-98382135D01*
X209073899Y-98366185D01*
X210102659Y-98677205D01*
G37*
X184110080Y-70339240D02*
X184202195Y-70728172D01*
X184570657Y-72386248D01*
X184745880Y-73215286D01*
X184899406Y-73962443D01*
X184971051Y-74637956D01*
X184858466Y-74781246D01*
X184449064Y-75016652D01*
X183794022Y-75262293D01*
X182391822Y-75825220D01*
X181296673Y-76296032D01*
X180743981Y-76562143D01*
X180416460Y-76766844D01*
X180293639Y-76858959D01*
X180150349Y-76869194D01*
X180007058Y-76777079D01*
X178594623Y-74730071D01*
X177416365Y-72928705D01*
X177713181Y-72703534D01*
X178061173Y-72498833D01*
X178634335Y-72202017D01*
X179361023Y-71823321D01*
X180220766Y-71393449D01*
X181234034Y-70984047D01*
X182431534Y-70543941D01*
X183383392Y-70267595D01*
X183772324Y-70165244D01*
X184007730Y-70155009D01*
X184110080Y-70339240D01*
G36*
X184110080Y-70339240D02*
G01*
X184202195Y-70728172D01*
X184570657Y-72386248D01*
X184745880Y-73215286D01*
X184899406Y-73962443D01*
X184971051Y-74637956D01*
X184858466Y-74781246D01*
X184449064Y-75016652D01*
X183794022Y-75262293D01*
X182391822Y-75825220D01*
X181296673Y-76296032D01*
X180743981Y-76562143D01*
X180416460Y-76766844D01*
X180293639Y-76858959D01*
X180150349Y-76869194D01*
X180007058Y-76777079D01*
X178594623Y-74730071D01*
X177416365Y-72928705D01*
X177713181Y-72703534D01*
X178061173Y-72498833D01*
X178634335Y-72202017D01*
X179361023Y-71823321D01*
X180220766Y-71393449D01*
X181234034Y-70984047D01*
X182431534Y-70543941D01*
X183383392Y-70267595D01*
X183772324Y-70165244D01*
X184007730Y-70155009D01*
X184110080Y-70339240D01*
G37*
X199607714Y-110422213D02*
X200476976Y-111746043D01*
X201194715Y-112942276D01*
X201984229Y-114345855D01*
X201840681Y-114505353D01*
X201027243Y-114959921D01*
X199982533Y-115414489D01*
X198786301Y-115924882D01*
X197996788Y-116227927D01*
X196848405Y-116594772D01*
X195899394Y-116826043D01*
X195803695Y-116770219D01*
X195731921Y-116570847D01*
X195396976Y-115366640D01*
X194966332Y-113652040D01*
X194655312Y-112352135D01*
X194655312Y-112248461D01*
X195085956Y-112080989D01*
X195644197Y-111881616D01*
X196545359Y-111586546D01*
X197294998Y-111283500D01*
X197909064Y-111036279D01*
X198483255Y-110797032D01*
X198905924Y-110589686D01*
X199272769Y-110446138D01*
X199488091Y-110406263D01*
X199607714Y-110422213D01*
G36*
X199607714Y-110422213D02*
G01*
X200476976Y-111746043D01*
X201194715Y-112942276D01*
X201984229Y-114345855D01*
X201840681Y-114505353D01*
X201027243Y-114959921D01*
X199982533Y-115414489D01*
X198786301Y-115924882D01*
X197996788Y-116227927D01*
X196848405Y-116594772D01*
X195899394Y-116826043D01*
X195803695Y-116770219D01*
X195731921Y-116570847D01*
X195396976Y-115366640D01*
X194966332Y-113652040D01*
X194655312Y-112352135D01*
X194655312Y-112248461D01*
X195085956Y-112080989D01*
X195644197Y-111881616D01*
X196545359Y-111586546D01*
X197294998Y-111283500D01*
X197909064Y-111036279D01*
X198483255Y-110797032D01*
X198905924Y-110589686D01*
X199272769Y-110446138D01*
X199488091Y-110406263D01*
X199607714Y-110422213D01*
G37*
X170123196Y-81696739D02*
X171791508Y-82658833D01*
X173347233Y-83539046D01*
X173367703Y-83723277D01*
X172804776Y-85053832D01*
X172467020Y-85729344D01*
X171996208Y-86875669D01*
X171740332Y-87561416D01*
X171412811Y-88441629D01*
X171300226Y-88574685D01*
X169386274Y-88155048D01*
X168188774Y-87858232D01*
X167216446Y-87592121D01*
X166899160Y-87448831D01*
X166755869Y-87407890D01*
X166725164Y-87264600D01*
X166837749Y-86670968D01*
X167073155Y-86056866D01*
X167318796Y-85381353D01*
X167728198Y-84347614D01*
X168260420Y-83098940D01*
X168731231Y-82075436D01*
X169007577Y-81563684D01*
X169171338Y-81369218D01*
X169396509Y-81358983D01*
X170123196Y-81696739D01*
G36*
X170123196Y-81696739D02*
G01*
X171791508Y-82658833D01*
X173347233Y-83539046D01*
X173367703Y-83723277D01*
X172804776Y-85053832D01*
X172467020Y-85729344D01*
X171996208Y-86875669D01*
X171740332Y-87561416D01*
X171412811Y-88441629D01*
X171300226Y-88574685D01*
X169386274Y-88155048D01*
X168188774Y-87858232D01*
X167216446Y-87592121D01*
X166899160Y-87448831D01*
X166755869Y-87407890D01*
X166725164Y-87264600D01*
X166837749Y-86670968D01*
X167073155Y-86056866D01*
X167318796Y-85381353D01*
X167728198Y-84347614D01*
X168260420Y-83098940D01*
X168731231Y-82075436D01*
X169007577Y-81563684D01*
X169171338Y-81369218D01*
X169396509Y-81358983D01*
X170123196Y-81696739D01*
G37*
X210997441Y-81486948D02*
X211778979Y-82978251D01*
X212464819Y-84541328D01*
X212783814Y-85426540D01*
X213110784Y-86311751D01*
X213238383Y-86790244D01*
X213334081Y-87157089D01*
X213334081Y-87316587D01*
X213158634Y-87428235D01*
X212448869Y-87667481D01*
X211340361Y-88042301D01*
X210447174Y-88305472D01*
X209043594Y-88712191D01*
X208892072Y-88728141D01*
X208788398Y-88608518D01*
X208485353Y-87842929D01*
X208150408Y-86758345D01*
X207823437Y-85944907D01*
X207424693Y-85051720D01*
X206946200Y-84118659D01*
X206726891Y-83709547D01*
X207616091Y-83185598D01*
X209131318Y-82284436D01*
X210455149Y-81502897D01*
X210909717Y-81335425D01*
X210997441Y-81486948D01*
G36*
X210997441Y-81486948D02*
G01*
X211778979Y-82978251D01*
X212464819Y-84541328D01*
X212783814Y-85426540D01*
X213110784Y-86311751D01*
X213238383Y-86790244D01*
X213334081Y-87157089D01*
X213334081Y-87316587D01*
X213158634Y-87428235D01*
X212448869Y-87667481D01*
X211340361Y-88042301D01*
X210447174Y-88305472D01*
X209043594Y-88712191D01*
X208892072Y-88728141D01*
X208788398Y-88608518D01*
X208485353Y-87842929D01*
X208150408Y-86758345D01*
X207823437Y-85944907D01*
X207424693Y-85051720D01*
X206946200Y-84118659D01*
X206726891Y-83709547D01*
X207616091Y-83185598D01*
X209131318Y-82284436D01*
X210455149Y-81502897D01*
X210909717Y-81335425D01*
X210997441Y-81486948D01*
G37*
D11*
%TO.C,GC9A1*%
X182467622Y-118537223D03*
D12*
X185007622Y-118537223D03*
X187547622Y-118537223D03*
X190087622Y-118537223D03*
X192627622Y-118537223D03*
X195167622Y-118537223D03*
X197707622Y-118537223D03*
%TD*%
D13*
%TO.C,U8*%
X201520910Y-77122749D03*
D14*
X202217695Y-75966166D03*
D15*
X202730133Y-75078589D03*
D16*
X203342654Y-74017667D03*
%TD*%
D17*
%TO.C,R1*%
X163274000Y-52308000D03*
X163274000Y-50308000D03*
%TD*%
D18*
%TO.C,U9*%
X186814326Y-73624186D03*
D19*
X186489203Y-72313662D03*
D20*
X186223937Y-71323696D03*
D21*
X185906872Y-70140390D03*
%TD*%
D22*
%TO.C,U6*%
X170651896Y-97158607D03*
D23*
X169341374Y-97483725D03*
D24*
X168351408Y-97748994D03*
D25*
X167168104Y-98066059D03*
%TD*%
D26*
%TO.C,SW3*%
X213203000Y-75390006D03*
X213202997Y-69389994D03*
X209453003Y-75390006D03*
X209453000Y-69389994D03*
%TD*%
D27*
%TO.C,U2*%
X212221223Y-112752130D03*
D28*
X214933697Y-111252256D03*
D27*
X212221228Y-109752133D03*
%TD*%
D29*
%TO.C,SW2*%
X167338000Y-58069000D03*
X161338000Y-58069000D03*
X167338000Y-61819000D03*
X161338000Y-61819000D03*
%TD*%
D30*
%TO.C,R5*%
X165846000Y-55118000D03*
X163846000Y-55118000D03*
%TD*%
D29*
%TO.C,SW1*%
X176180000Y-45623000D03*
X170180000Y-45623000D03*
X176180000Y-49373000D03*
X170180000Y-49373000D03*
%TD*%
D31*
%TO.C,U1*%
X212851996Y-65531999D03*
X211581997Y-65531998D03*
X210311992Y-65531997D03*
X209041995Y-65531998D03*
X207771994Y-65531995D03*
X206501998Y-65531999D03*
X205231996Y-65532000D03*
X203961992Y-65531997D03*
X202691994Y-65531996D03*
X201421995Y-65531998D03*
X200151996Y-65531998D03*
X198882000Y-65532000D03*
X197611996Y-65532002D03*
X196341992Y-65531997D03*
D32*
X195091992Y-63766996D03*
X195091995Y-62497000D03*
X195091996Y-61226995D03*
X195091991Y-59956996D03*
X195091993Y-58687000D03*
X195091997Y-57416997D03*
X195091995Y-56146996D03*
X195091994Y-54877003D03*
X195091997Y-53606999D03*
X195091994Y-52336996D03*
X195091999Y-51067000D03*
X195091995Y-49796998D03*
D31*
X196341997Y-48031996D03*
X197611993Y-48031999D03*
X198881992Y-48031997D03*
X200151993Y-48032000D03*
X201421994Y-48031997D03*
X202691995Y-48031996D03*
X203962000Y-48031997D03*
X205231993Y-48031998D03*
X206501995Y-48031998D03*
X207771993Y-48031995D03*
X209041997Y-48031998D03*
X210311999Y-48032000D03*
X211581997Y-48031997D03*
X212851993Y-48031998D03*
D33*
X205831991Y-59682001D03*
X204431991Y-59681997D03*
X203731995Y-58981998D03*
X205131995Y-58981998D03*
X206531996Y-58981997D03*
D34*
X205131997Y-58282000D03*
D33*
X204431993Y-58281998D03*
X205831995Y-58281998D03*
X206531995Y-57582001D03*
X205131997Y-57582000D03*
X203731993Y-57581997D03*
X204431995Y-56882000D03*
X205831994Y-56881999D03*
%TD*%
D35*
%TO.C,BZ1*%
X186029983Y-46837985D03*
X179730015Y-46837983D03*
X179730017Y-40538015D03*
X186029985Y-40538017D03*
%TD*%
D36*
%TO.C,U10*%
X174044225Y-82025225D03*
D37*
X172887653Y-81328442D03*
D38*
X172000068Y-80816001D03*
D39*
X170939147Y-80203479D03*
%TD*%
D17*
%TO.C,R4*%
X166322000Y-52307998D03*
X166322000Y-50308002D03*
%TD*%
D40*
%TO.C,U4*%
X193094273Y-113066102D03*
D41*
X193419396Y-114376624D03*
D42*
X193684662Y-115366592D03*
D43*
X194001727Y-116549898D03*
%TD*%
D29*
%TO.C,SW5*%
X161338001Y-67915004D03*
X167338001Y-67914998D03*
X161337999Y-64165002D03*
X167337999Y-64164996D03*
%TD*%
D44*
%TO.C,R2*%
X170131999Y-56404001D03*
X170132001Y-58403999D03*
%TD*%
D11*
%TO.C,J1*%
X207518000Y-116342000D03*
D12*
X207518000Y-118882000D03*
X207518000Y-121422000D03*
X207518000Y-123962000D03*
%TD*%
D45*
%TO.C,U7*%
X209862683Y-90293393D03*
D46*
X211173205Y-89968269D03*
D47*
X212163166Y-89703013D03*
D48*
X213346479Y-89385939D03*
%TD*%
D49*
%TO.C,U3*%
X206076436Y-105377063D03*
D50*
X207167880Y-106172000D03*
D51*
X208007425Y-106759847D03*
D52*
X209010926Y-107462505D03*
%TD*%
D29*
%TO.C,SW4*%
X178768000Y-54670000D03*
X172768000Y-54670000D03*
X178768000Y-58420000D03*
X172768000Y-58420000D03*
%TD*%
D53*
%TO.C,U5*%
X179218874Y-109953459D03*
D54*
X178522087Y-111110033D03*
D55*
X178009649Y-111997618D03*
D56*
X177397126Y-113058541D03*
%TD*%
D30*
%TO.C,R3*%
X212073999Y-67564001D03*
X210074001Y-67563999D03*
%TD*%
M02*
