%TF.GenerationSoftware,KiCad,Pcbnew,8.0.4*%
%TF.CreationDate,2025-02-22T00:19:55+08:00*%
%TF.ProjectId,maibadge_ver2,6d616962-6164-4676-955f-766572322e6b,rev?*%
%TF.SameCoordinates,Original*%
%TF.FileFunction,Legend,Top*%
%TF.FilePolarity,Positive*%
%FSLAX46Y46*%
G04 Gerber Fmt 4.6, Leading zero omitted, Abs format (unit mm)*
G04 Created by KiCad (PCBNEW 8.0.4) date 2025-02-22 00:19:55*
%MOMM*%
%LPD*%
G01*
G04 APERTURE LIST*
%ADD10C,0.100000*%
%ADD11C,0.300000*%
%ADD12C,0.150000*%
%ADD13C,0.000000*%
G04 APERTURE END LIST*
D10*
X188468574Y-92492261D02*
X188373336Y-92444642D01*
X188373336Y-92444642D02*
X188230479Y-92444642D01*
X188230479Y-92444642D02*
X188087622Y-92492261D01*
X188087622Y-92492261D02*
X187992384Y-92587499D01*
X187992384Y-92587499D02*
X187944765Y-92682737D01*
X187944765Y-92682737D02*
X187897146Y-92873213D01*
X187897146Y-92873213D02*
X187897146Y-93016070D01*
X187897146Y-93016070D02*
X187944765Y-93206546D01*
X187944765Y-93206546D02*
X187992384Y-93301784D01*
X187992384Y-93301784D02*
X188087622Y-93397023D01*
X188087622Y-93397023D02*
X188230479Y-93444642D01*
X188230479Y-93444642D02*
X188325717Y-93444642D01*
X188325717Y-93444642D02*
X188468574Y-93397023D01*
X188468574Y-93397023D02*
X188516193Y-93349403D01*
X188516193Y-93349403D02*
X188516193Y-93016070D01*
X188516193Y-93016070D02*
X188325717Y-93016070D01*
X189516193Y-93349403D02*
X189468574Y-93397023D01*
X189468574Y-93397023D02*
X189325717Y-93444642D01*
X189325717Y-93444642D02*
X189230479Y-93444642D01*
X189230479Y-93444642D02*
X189087622Y-93397023D01*
X189087622Y-93397023D02*
X188992384Y-93301784D01*
X188992384Y-93301784D02*
X188944765Y-93206546D01*
X188944765Y-93206546D02*
X188897146Y-93016070D01*
X188897146Y-93016070D02*
X188897146Y-92873213D01*
X188897146Y-92873213D02*
X188944765Y-92682737D01*
X188944765Y-92682737D02*
X188992384Y-92587499D01*
X188992384Y-92587499D02*
X189087622Y-92492261D01*
X189087622Y-92492261D02*
X189230479Y-92444642D01*
X189230479Y-92444642D02*
X189325717Y-92444642D01*
X189325717Y-92444642D02*
X189468574Y-92492261D01*
X189468574Y-92492261D02*
X189516193Y-92539880D01*
X189992384Y-93444642D02*
X190182860Y-93444642D01*
X190182860Y-93444642D02*
X190278098Y-93397023D01*
X190278098Y-93397023D02*
X190325717Y-93349403D01*
X190325717Y-93349403D02*
X190420955Y-93206546D01*
X190420955Y-93206546D02*
X190468574Y-93016070D01*
X190468574Y-93016070D02*
X190468574Y-92635118D01*
X190468574Y-92635118D02*
X190420955Y-92539880D01*
X190420955Y-92539880D02*
X190373336Y-92492261D01*
X190373336Y-92492261D02*
X190278098Y-92444642D01*
X190278098Y-92444642D02*
X190087622Y-92444642D01*
X190087622Y-92444642D02*
X189992384Y-92492261D01*
X189992384Y-92492261D02*
X189944765Y-92539880D01*
X189944765Y-92539880D02*
X189897146Y-92635118D01*
X189897146Y-92635118D02*
X189897146Y-92873213D01*
X189897146Y-92873213D02*
X189944765Y-92968451D01*
X189944765Y-92968451D02*
X189992384Y-93016070D01*
X189992384Y-93016070D02*
X190087622Y-93063689D01*
X190087622Y-93063689D02*
X190278098Y-93063689D01*
X190278098Y-93063689D02*
X190373336Y-93016070D01*
X190373336Y-93016070D02*
X190420955Y-92968451D01*
X190420955Y-92968451D02*
X190468574Y-92873213D01*
X190849527Y-93158927D02*
X191325717Y-93158927D01*
X190754289Y-93444642D02*
X191087622Y-92444642D01*
X191087622Y-92444642D02*
X191420955Y-93444642D01*
X192278098Y-93444642D02*
X191706670Y-93444642D01*
X191992384Y-93444642D02*
X191992384Y-92444642D01*
X191992384Y-92444642D02*
X191897146Y-92587499D01*
X191897146Y-92587499D02*
X191801908Y-92682737D01*
X191801908Y-92682737D02*
X191706670Y-92730356D01*
D11*
X188544929Y-85703243D02*
X188402072Y-85631814D01*
X188402072Y-85631814D02*
X188187786Y-85631814D01*
X188187786Y-85631814D02*
X187973500Y-85703243D01*
X187973500Y-85703243D02*
X187830643Y-85846100D01*
X187830643Y-85846100D02*
X187759214Y-85988957D01*
X187759214Y-85988957D02*
X187687786Y-86274671D01*
X187687786Y-86274671D02*
X187687786Y-86488957D01*
X187687786Y-86488957D02*
X187759214Y-86774671D01*
X187759214Y-86774671D02*
X187830643Y-86917528D01*
X187830643Y-86917528D02*
X187973500Y-87060386D01*
X187973500Y-87060386D02*
X188187786Y-87131814D01*
X188187786Y-87131814D02*
X188330643Y-87131814D01*
X188330643Y-87131814D02*
X188544929Y-87060386D01*
X188544929Y-87060386D02*
X188616357Y-86988957D01*
X188616357Y-86988957D02*
X188616357Y-86488957D01*
X188616357Y-86488957D02*
X188330643Y-86488957D01*
X189473500Y-85631814D02*
X189473500Y-85988957D01*
X189116357Y-85846100D02*
X189473500Y-85988957D01*
X189473500Y-85988957D02*
X189830643Y-85846100D01*
X189259214Y-86274671D02*
X189473500Y-85988957D01*
X189473500Y-85988957D02*
X189687786Y-86274671D01*
X190616357Y-85631814D02*
X190616357Y-85988957D01*
X190259214Y-85846100D02*
X190616357Y-85988957D01*
X190616357Y-85988957D02*
X190973500Y-85846100D01*
X190402071Y-86274671D02*
X190616357Y-85988957D01*
X190616357Y-85988957D02*
X190830643Y-86274671D01*
X191759214Y-85631814D02*
X191759214Y-85988957D01*
X191402071Y-85846100D02*
X191759214Y-85988957D01*
X191759214Y-85988957D02*
X192116357Y-85846100D01*
X191544928Y-86274671D02*
X191759214Y-85988957D01*
X191759214Y-85988957D02*
X191973500Y-86274671D01*
D12*
X164679333Y-53922819D02*
X164346000Y-53446628D01*
X164107905Y-53922819D02*
X164107905Y-52922819D01*
X164107905Y-52922819D02*
X164488857Y-52922819D01*
X164488857Y-52922819D02*
X164584095Y-52970438D01*
X164584095Y-52970438D02*
X164631714Y-53018057D01*
X164631714Y-53018057D02*
X164679333Y-53113295D01*
X164679333Y-53113295D02*
X164679333Y-53256152D01*
X164679333Y-53256152D02*
X164631714Y-53351390D01*
X164631714Y-53351390D02*
X164584095Y-53399009D01*
X164584095Y-53399009D02*
X164488857Y-53446628D01*
X164488857Y-53446628D02*
X164107905Y-53446628D01*
X165584095Y-52922819D02*
X165107905Y-52922819D01*
X165107905Y-52922819D02*
X165060286Y-53399009D01*
X165060286Y-53399009D02*
X165107905Y-53351390D01*
X165107905Y-53351390D02*
X165203143Y-53303771D01*
X165203143Y-53303771D02*
X165441238Y-53303771D01*
X165441238Y-53303771D02*
X165536476Y-53351390D01*
X165536476Y-53351390D02*
X165584095Y-53399009D01*
X165584095Y-53399009D02*
X165631714Y-53494247D01*
X165631714Y-53494247D02*
X165631714Y-53732342D01*
X165631714Y-53732342D02*
X165584095Y-53827580D01*
X165584095Y-53827580D02*
X165536476Y-53875200D01*
X165536476Y-53875200D02*
X165441238Y-53922819D01*
X165441238Y-53922819D02*
X165203143Y-53922819D01*
X165203143Y-53922819D02*
X165107905Y-53875200D01*
X165107905Y-53875200D02*
X165060286Y-53827580D01*
X163004670Y-70197200D02*
X163147527Y-70244819D01*
X163147527Y-70244819D02*
X163385622Y-70244819D01*
X163385622Y-70244819D02*
X163480860Y-70197200D01*
X163480860Y-70197200D02*
X163528479Y-70149580D01*
X163528479Y-70149580D02*
X163576098Y-70054342D01*
X163576098Y-70054342D02*
X163576098Y-69959104D01*
X163576098Y-69959104D02*
X163528479Y-69863866D01*
X163528479Y-69863866D02*
X163480860Y-69816247D01*
X163480860Y-69816247D02*
X163385622Y-69768628D01*
X163385622Y-69768628D02*
X163195146Y-69721009D01*
X163195146Y-69721009D02*
X163099908Y-69673390D01*
X163099908Y-69673390D02*
X163052289Y-69625771D01*
X163052289Y-69625771D02*
X163004670Y-69530533D01*
X163004670Y-69530533D02*
X163004670Y-69435295D01*
X163004670Y-69435295D02*
X163052289Y-69340057D01*
X163052289Y-69340057D02*
X163099908Y-69292438D01*
X163099908Y-69292438D02*
X163195146Y-69244819D01*
X163195146Y-69244819D02*
X163433241Y-69244819D01*
X163433241Y-69244819D02*
X163576098Y-69292438D01*
X163909432Y-69244819D02*
X164147527Y-70244819D01*
X164147527Y-70244819D02*
X164338003Y-69530533D01*
X164338003Y-69530533D02*
X164528479Y-70244819D01*
X164528479Y-70244819D02*
X164766575Y-69244819D01*
X165623717Y-69244819D02*
X165147527Y-69244819D01*
X165147527Y-69244819D02*
X165099908Y-69721009D01*
X165099908Y-69721009D02*
X165147527Y-69673390D01*
X165147527Y-69673390D02*
X165242765Y-69625771D01*
X165242765Y-69625771D02*
X165480860Y-69625771D01*
X165480860Y-69625771D02*
X165576098Y-69673390D01*
X165576098Y-69673390D02*
X165623717Y-69721009D01*
X165623717Y-69721009D02*
X165671336Y-69816247D01*
X165671336Y-69816247D02*
X165671336Y-70054342D01*
X165671336Y-70054342D02*
X165623717Y-70149580D01*
X165623717Y-70149580D02*
X165576098Y-70197200D01*
X165576098Y-70197200D02*
X165480860Y-70244819D01*
X165480860Y-70244819D02*
X165242765Y-70244819D01*
X165242765Y-70244819D02*
X165147527Y-70197200D01*
X165147527Y-70197200D02*
X165099908Y-70149580D01*
D13*
%TO.C,G\u002A\u002A\u002A*%
G36*
X175914244Y-103565693D02*
G01*
X175854620Y-103625317D01*
X175794996Y-103565693D01*
X175854620Y-103506069D01*
X175914244Y-103565693D01*
G37*
G36*
X176868235Y-81981655D02*
G01*
X176808611Y-82041280D01*
X176748986Y-81981655D01*
X176808611Y-81922031D01*
X176868235Y-81981655D01*
G37*
G36*
X181041944Y-78642688D02*
G01*
X180982320Y-78702313D01*
X180922695Y-78642688D01*
X180982320Y-78583064D01*
X181041944Y-78642688D01*
G37*
G36*
X203699221Y-104519684D02*
G01*
X203639597Y-104579308D01*
X203579972Y-104519684D01*
X203639597Y-104460059D01*
X203699221Y-104519684D01*
G37*
G36*
X176876232Y-49302870D02*
G01*
X177228513Y-49430890D01*
X177434655Y-49530862D01*
X178041853Y-49902655D01*
X178470900Y-50338144D01*
X178782078Y-50906527D01*
X178893434Y-51205392D01*
X179049781Y-51710078D01*
X179116752Y-52093510D01*
X179097286Y-52454343D01*
X178994321Y-52891228D01*
X178948360Y-53049277D01*
X178619934Y-53764882D01*
X178121180Y-54345490D01*
X177489509Y-54773257D01*
X176762332Y-55030341D01*
X175977062Y-55098897D01*
X175171110Y-54961083D01*
X175034756Y-54915856D01*
X174386642Y-54568112D01*
X173880843Y-54061153D01*
X173526119Y-53433362D01*
X173331233Y-52723122D01*
X173304945Y-51968814D01*
X173456018Y-51208821D01*
X173793211Y-50481527D01*
X173965272Y-50230555D01*
X174461804Y-49766493D01*
X175130898Y-49446639D01*
X175946664Y-49282917D01*
X176039071Y-49275320D01*
X176517892Y-49257997D01*
X176876232Y-49302870D01*
G37*
G36*
X204608847Y-49298216D02*
G01*
X205354674Y-49554487D01*
X206007475Y-50008973D01*
X206534440Y-50648806D01*
X206666732Y-50882027D01*
X206788660Y-51260585D01*
X206864309Y-51777326D01*
X206887022Y-52335249D01*
X206850140Y-52837352D01*
X206813210Y-53015992D01*
X206491903Y-53765445D01*
X205969609Y-54387396D01*
X205617442Y-54660329D01*
X205270545Y-54862583D01*
X204921813Y-54979262D01*
X204472474Y-55038668D01*
X204249145Y-55052399D01*
X203653147Y-55050728D01*
X203161915Y-54988561D01*
X202983728Y-54937704D01*
X202363960Y-54631844D01*
X201881950Y-54212649D01*
X201486706Y-53629563D01*
X201316457Y-53284616D01*
X201113782Y-52566228D01*
X201118448Y-51820980D01*
X201310711Y-51094897D01*
X201670823Y-50434006D01*
X202179040Y-49884333D01*
X202815616Y-49491904D01*
X202969353Y-49431798D01*
X203802803Y-49253030D01*
X204608847Y-49298216D01*
G37*
G36*
X190825811Y-55608544D02*
G01*
X191874146Y-55857868D01*
X192921121Y-56330657D01*
X193984578Y-57031825D01*
X194365373Y-57333243D01*
X195003357Y-57835546D01*
X195529660Y-58184923D01*
X195995160Y-58402959D01*
X196450737Y-58511244D01*
X196947270Y-58531363D01*
X197162479Y-58520012D01*
X197660490Y-58464720D01*
X198041328Y-58356801D01*
X198422892Y-58155276D01*
X198662580Y-57998635D01*
X199222735Y-57643100D01*
X199659772Y-57430305D01*
X200027000Y-57342506D01*
X200377726Y-57361959D01*
X200496379Y-57388241D01*
X201005970Y-57628528D01*
X201386826Y-58025417D01*
X201613600Y-58523573D01*
X201660943Y-59067663D01*
X201507299Y-59595077D01*
X201270334Y-59909349D01*
X200878562Y-60280838D01*
X200391746Y-60662648D01*
X199869654Y-61007884D01*
X199374559Y-61268548D01*
X198498574Y-61553237D01*
X197511631Y-61705253D01*
X196507806Y-61713754D01*
X196004689Y-61656943D01*
X195371095Y-61537922D01*
X194832201Y-61388617D01*
X194337924Y-61183047D01*
X193838183Y-60895228D01*
X193282893Y-60499178D01*
X192621973Y-59968914D01*
X192410451Y-59792249D01*
X191973039Y-59451831D01*
X191542065Y-59162041D01*
X191187864Y-58968615D01*
X191080871Y-58927695D01*
X190242609Y-58796647D01*
X189398623Y-58888761D01*
X188589827Y-59193303D01*
X187857135Y-59699541D01*
X187745475Y-59802595D01*
X186759692Y-60605179D01*
X185699004Y-61200272D01*
X184585907Y-61581080D01*
X183442901Y-61740812D01*
X182292483Y-61672673D01*
X181848078Y-61583209D01*
X181168042Y-61364128D01*
X180476081Y-61047285D01*
X179825629Y-60666098D01*
X179270116Y-60253982D01*
X178862975Y-59844354D01*
X178718338Y-59625878D01*
X178556509Y-59088480D01*
X178581797Y-58530667D01*
X178776708Y-58018579D01*
X179123748Y-57618359D01*
X179275840Y-57518100D01*
X179750470Y-57358849D01*
X180276364Y-57392259D01*
X180879707Y-57623072D01*
X181343673Y-57892682D01*
X181921679Y-58236722D01*
X182407061Y-58443259D01*
X182883424Y-58535493D01*
X183434370Y-58536624D01*
X183616903Y-58523483D01*
X183982346Y-58462308D01*
X184362518Y-58326842D01*
X184791517Y-58097263D01*
X185303438Y-57753747D01*
X185932379Y-57276472D01*
X186382784Y-56915472D01*
X187027408Y-56437795D01*
X187638378Y-56101066D01*
X188320456Y-55852010D01*
X188653688Y-55760646D01*
X189758273Y-55577775D01*
X190825811Y-55608544D01*
G37*
G36*
X220297631Y-36985270D02*
G01*
X220954410Y-36993764D01*
X221487416Y-37005518D01*
X221868522Y-37019480D01*
X222069603Y-37034596D01*
X222062533Y-37049812D01*
X222052287Y-37050986D01*
X221623664Y-37096656D01*
X221634917Y-39445729D01*
X221646169Y-41794801D01*
X222033728Y-41764535D01*
X222421287Y-41734269D01*
X222421287Y-43656773D01*
X222421287Y-45579278D01*
X222070045Y-45979320D01*
X221812927Y-46345759D01*
X221620013Y-46747631D01*
X221593715Y-46829804D01*
X221567393Y-47048970D01*
X221544106Y-47504822D01*
X221523877Y-48195567D01*
X221506728Y-49119414D01*
X221492681Y-50274570D01*
X221481759Y-51659243D01*
X221473984Y-53271640D01*
X221469378Y-55109969D01*
X221467961Y-56945867D01*
X221467296Y-66611488D01*
X221822416Y-67171454D01*
X222038101Y-67479620D01*
X222219274Y-67683005D01*
X222299411Y-67731421D01*
X222348993Y-67848489D01*
X222386278Y-68191533D01*
X222410507Y-68748310D01*
X222420924Y-69506576D01*
X222421287Y-69701298D01*
X222421287Y-71671176D01*
X222119342Y-71595392D01*
X221804661Y-71529928D01*
X221612534Y-71503684D01*
X221589233Y-71511314D01*
X221567701Y-71544179D01*
X221547841Y-71611595D01*
X221529558Y-71722874D01*
X221512756Y-71887332D01*
X221497339Y-72114284D01*
X221483211Y-72413043D01*
X221470276Y-72792926D01*
X221458439Y-73263245D01*
X221447603Y-73833315D01*
X221437672Y-74512452D01*
X221428550Y-75309970D01*
X221420142Y-76235182D01*
X221412351Y-77297405D01*
X221405083Y-78505952D01*
X221398239Y-79870137D01*
X221391726Y-81399277D01*
X221385447Y-83102684D01*
X221379305Y-84989673D01*
X221373205Y-87069560D01*
X221367052Y-89351658D01*
X221360749Y-91845283D01*
X221354200Y-94559748D01*
X221348047Y-97185881D01*
X221288423Y-122884003D01*
X220902605Y-123806903D01*
X220247494Y-125169699D01*
X219502032Y-126325400D01*
X218648640Y-127294036D01*
X217669740Y-128095636D01*
X216576672Y-128735998D01*
X215969545Y-129001538D01*
X215288567Y-129244311D01*
X214606410Y-129443028D01*
X213995749Y-129576400D01*
X213547986Y-129623190D01*
X213101351Y-129650692D01*
X212827054Y-129760269D01*
X212661392Y-129999875D01*
X212550761Y-130373827D01*
X212176056Y-131467615D01*
X211594039Y-132500228D01*
X210834275Y-133438239D01*
X209926331Y-134248221D01*
X208899771Y-134896747D01*
X208312472Y-135165672D01*
X207862106Y-135330350D01*
X207444366Y-135439256D01*
X206978474Y-135506910D01*
X206383650Y-135547831D01*
X206126148Y-135558673D01*
X205235636Y-135568914D01*
X204505565Y-135516051D01*
X203863321Y-135387636D01*
X203236290Y-135171219D01*
X202840128Y-134995351D01*
X201724918Y-134339598D01*
X200760989Y-133505215D01*
X199963163Y-132509174D01*
X199346264Y-131368449D01*
X199097377Y-130709913D01*
X198941120Y-130273633D01*
X198791465Y-129927537D01*
X198676027Y-129733948D01*
X198657869Y-129717953D01*
X198517222Y-129702608D01*
X198157445Y-129688005D01*
X197597904Y-129674357D01*
X196857967Y-129661876D01*
X195957000Y-129650774D01*
X194914371Y-129641264D01*
X193749445Y-129633557D01*
X192481590Y-129627867D01*
X191130173Y-129624405D01*
X190030019Y-129623388D01*
X188373878Y-129622120D01*
X186939965Y-129620374D01*
X185712025Y-129620088D01*
X184673802Y-129623203D01*
X183809039Y-129631658D01*
X183101481Y-129647394D01*
X182534870Y-129672349D01*
X182092950Y-129708463D01*
X181759467Y-129757676D01*
X181518162Y-129821928D01*
X181352780Y-129903158D01*
X181247064Y-130003307D01*
X181184759Y-130124313D01*
X181149608Y-130268117D01*
X181125355Y-130436658D01*
X181095744Y-130631875D01*
X181084444Y-130690770D01*
X180938544Y-131157656D01*
X180685503Y-131733515D01*
X180365910Y-132340085D01*
X180020353Y-132899101D01*
X179751934Y-133260146D01*
X179462771Y-133546490D01*
X179033435Y-133901700D01*
X178530820Y-134276300D01*
X178021819Y-134620818D01*
X177573327Y-134885779D01*
X177509766Y-134918427D01*
X176451627Y-135327408D01*
X175289749Y-135566300D01*
X174099418Y-135622596D01*
X173529268Y-135579815D01*
X172465337Y-135351611D01*
X171395182Y-134933845D01*
X170400068Y-134358825D01*
X170324167Y-134305598D01*
X169863925Y-133969286D01*
X169526784Y-133689848D01*
X169247597Y-133400860D01*
X168961214Y-133035898D01*
X168654044Y-132602782D01*
X168248829Y-131958577D01*
X167936864Y-131338170D01*
X167741948Y-130794902D01*
X167686075Y-130433305D01*
X167622334Y-129980434D01*
X167422394Y-129715482D01*
X167073179Y-129622110D01*
X167036501Y-129621562D01*
X166514091Y-129580672D01*
X165859732Y-129471022D01*
X165163034Y-129312139D01*
X164513603Y-129123550D01*
X164160668Y-128994860D01*
X162956254Y-128377498D01*
X161862448Y-127562362D01*
X161392312Y-127112076D01*
X161065790Y-126784856D01*
X160796629Y-126537382D01*
X160630296Y-126410725D01*
X160606687Y-126402414D01*
X160481102Y-126481703D01*
X160235837Y-126693564D01*
X159915988Y-126998149D01*
X159790533Y-127123571D01*
X159265336Y-127613617D01*
X158710368Y-128060946D01*
X158180566Y-128425790D01*
X157730865Y-128668377D01*
X157579737Y-128724051D01*
X157311428Y-128802892D01*
X157311428Y-126820257D01*
X157311428Y-124837623D01*
X157659744Y-124397433D01*
X158257824Y-123455891D01*
X158644171Y-122407025D01*
X158695212Y-122189550D01*
X158711995Y-121992056D01*
X158727961Y-121567178D01*
X158743112Y-120926027D01*
X158757449Y-120079717D01*
X158770972Y-119039358D01*
X158783682Y-117816064D01*
X158795579Y-116420946D01*
X158806665Y-114865116D01*
X158816939Y-113159687D01*
X158826404Y-111315771D01*
X158835058Y-109344478D01*
X158842903Y-107256923D01*
X158849941Y-105064216D01*
X158856170Y-102777471D01*
X158861592Y-100407798D01*
X158866209Y-97966310D01*
X158870019Y-95464119D01*
X158873025Y-92912337D01*
X158875226Y-90322077D01*
X158876623Y-87704450D01*
X158877218Y-85070568D01*
X158877010Y-82431544D01*
X158876001Y-79798490D01*
X158874191Y-77182517D01*
X158871581Y-74594738D01*
X158868171Y-72046265D01*
X158864784Y-70035610D01*
X162322026Y-70035610D01*
X162322337Y-72916621D01*
X162322859Y-76010588D01*
X162323459Y-79325320D01*
X162324005Y-82868627D01*
X162324126Y-83867224D01*
X162324524Y-87444985D01*
X162324942Y-90792150D01*
X162325463Y-93916624D01*
X162326174Y-96826309D01*
X162327158Y-99529109D01*
X162328501Y-102032926D01*
X162330286Y-104345663D01*
X162332599Y-106475223D01*
X162335524Y-108429509D01*
X162339146Y-110216425D01*
X162343549Y-111843873D01*
X162348819Y-113319756D01*
X162355039Y-114651977D01*
X162362295Y-115848439D01*
X162370671Y-116917045D01*
X162380251Y-117865698D01*
X162391121Y-118702301D01*
X162403365Y-119434757D01*
X162417067Y-120070969D01*
X162432313Y-120618840D01*
X162449187Y-121086274D01*
X162467773Y-121481171D01*
X162488157Y-121811437D01*
X162510423Y-122084974D01*
X162534655Y-122309685D01*
X162560938Y-122493472D01*
X162589358Y-122644239D01*
X162619997Y-122769889D01*
X162652942Y-122878325D01*
X162688277Y-122977450D01*
X162726087Y-123075166D01*
X162744598Y-123122500D01*
X163109161Y-123807366D01*
X163642419Y-124476814D01*
X164282408Y-125054780D01*
X164372330Y-125120739D01*
X164934325Y-125474727D01*
X165525420Y-125767209D01*
X166105345Y-125987170D01*
X166633826Y-126123593D01*
X167070593Y-126165465D01*
X167375374Y-126101770D01*
X167494444Y-125974719D01*
X167527296Y-125774446D01*
X167552362Y-125403352D01*
X167565674Y-124929083D01*
X167566827Y-124740241D01*
X167576044Y-124200511D01*
X167612285Y-123830188D01*
X167688433Y-123560605D01*
X167817368Y-123323091D01*
X167838716Y-123290934D01*
X168236524Y-122857359D01*
X168724337Y-122633289D01*
X169152795Y-122587639D01*
X169768607Y-122694269D01*
X170286557Y-123004098D01*
X170528921Y-123274514D01*
X170604611Y-123396911D01*
X170663346Y-123546113D01*
X170707917Y-123753659D01*
X170741116Y-124051088D01*
X170765733Y-124469940D01*
X170784559Y-125041754D01*
X170800385Y-125798068D01*
X170811360Y-126466219D01*
X170826742Y-127374834D01*
X170843321Y-128079504D01*
X170864246Y-128614775D01*
X170892665Y-129015193D01*
X170931728Y-129315303D01*
X170984586Y-129549651D01*
X171054386Y-129752782D01*
X171126201Y-129919684D01*
X171574298Y-130660508D01*
X172179521Y-131302466D01*
X172885673Y-131793849D01*
X173409247Y-132020310D01*
X173846149Y-132092339D01*
X174416207Y-132093697D01*
X175027476Y-132032526D01*
X175588012Y-131916968D01*
X175923798Y-131797647D01*
X176567929Y-131397636D01*
X177109324Y-130834862D01*
X177561544Y-130115959D01*
X177917107Y-129442688D01*
X177971109Y-126639040D01*
X177992444Y-125673763D01*
X178018657Y-124915372D01*
X178055430Y-124332254D01*
X178108440Y-123892799D01*
X178183367Y-123565395D01*
X178285890Y-123318431D01*
X178421688Y-123120295D01*
X178596441Y-122939377D01*
X178643551Y-122896145D01*
X178941909Y-122734153D01*
X179366318Y-122631872D01*
X179460689Y-122621513D01*
X180119397Y-122671619D01*
X180681565Y-122936330D01*
X181127657Y-123406432D01*
X181129004Y-123408445D01*
X181258015Y-123631885D01*
X181338670Y-123874522D01*
X181381779Y-124198951D01*
X181398151Y-124667767D01*
X181399690Y-124975734D01*
X181406457Y-125530956D01*
X181431132Y-125890909D01*
X181480280Y-126098550D01*
X181560465Y-126196838D01*
X181588317Y-126210212D01*
X181740208Y-126223533D01*
X182106979Y-126235423D01*
X182665014Y-126245887D01*
X183390699Y-126254929D01*
X184260420Y-126262552D01*
X185250562Y-126268760D01*
X186337511Y-126273557D01*
X187497652Y-126276947D01*
X188707372Y-126278933D01*
X189943055Y-126279521D01*
X191181087Y-126278712D01*
X192397854Y-126276513D01*
X193569741Y-126272925D01*
X194673134Y-126267954D01*
X195684419Y-126261602D01*
X196579981Y-126253875D01*
X197336205Y-126244775D01*
X197929478Y-126234306D01*
X198336185Y-126222474D01*
X198532711Y-126209280D01*
X198541709Y-126207434D01*
X198668439Y-126158388D01*
X198747416Y-126061587D01*
X198789879Y-125868443D01*
X198807062Y-125530366D01*
X198810204Y-125046386D01*
X198828096Y-124401367D01*
X198886721Y-123936277D01*
X198993889Y-123594828D01*
X199018890Y-123542248D01*
X199370264Y-123065224D01*
X199830372Y-122752314D01*
X200350126Y-122604989D01*
X200880439Y-122624723D01*
X201372225Y-122812986D01*
X201776398Y-123171250D01*
X201949845Y-123454378D01*
X202016855Y-123629287D01*
X202067398Y-123856024D01*
X202103635Y-124167839D01*
X202127722Y-124597983D01*
X202141820Y-125179707D01*
X202148087Y-125946261D01*
X202148986Y-126521676D01*
X202148986Y-129169314D01*
X202575476Y-129980926D01*
X203040570Y-130743293D01*
X203541559Y-131305121D01*
X204116850Y-131704358D01*
X204490336Y-131872801D01*
X205378998Y-132095789D01*
X206248709Y-132092142D01*
X207072131Y-131873577D01*
X207821925Y-131451810D01*
X208470754Y-130838555D01*
X208991279Y-130045529D01*
X209054172Y-129916971D01*
X209135874Y-129726984D01*
X209197613Y-129527414D01*
X209242155Y-129282818D01*
X209272265Y-128957755D01*
X209290707Y-128516784D01*
X209300247Y-127924462D01*
X209303650Y-127145349D01*
X209303916Y-126715828D01*
X209307455Y-125755886D01*
X209321512Y-125001523D01*
X209351242Y-124419882D01*
X209401803Y-123978104D01*
X209478351Y-123643332D01*
X209586044Y-123382706D01*
X209730037Y-123163370D01*
X209890389Y-122978931D01*
X210260287Y-122737197D01*
X210759583Y-122611287D01*
X211298812Y-122622266D01*
X211358942Y-122633177D01*
X211906183Y-122830574D01*
X212311015Y-123184105D01*
X212581956Y-123708552D01*
X212727521Y-124418696D01*
X212759513Y-125064037D01*
X212773046Y-125609416D01*
X212833335Y-125951268D01*
X212975152Y-126124264D01*
X213233270Y-126163074D01*
X213642464Y-126102366D01*
X213773888Y-126075400D01*
X214756157Y-125753678D01*
X215668598Y-125232180D01*
X216467585Y-124545491D01*
X217109495Y-123728191D01*
X217393602Y-123205855D01*
X217772027Y-122384853D01*
X217741492Y-83699686D01*
X217710958Y-45014519D01*
X217359700Y-44321281D01*
X216904203Y-43620686D01*
X216280898Y-42938669D01*
X215556597Y-42336624D01*
X214798115Y-41875950D01*
X214600146Y-41785464D01*
X213775747Y-41437054D01*
X190522226Y-41403879D01*
X187692347Y-41399721D01*
X185090897Y-41395835D01*
X182707808Y-41392489D01*
X180533011Y-41389951D01*
X178556438Y-41388488D01*
X176768019Y-41388370D01*
X175157688Y-41389863D01*
X173715374Y-41393236D01*
X172431010Y-41398756D01*
X171294526Y-41406692D01*
X170295856Y-41417311D01*
X169424929Y-41430882D01*
X168671678Y-41447672D01*
X168026033Y-41467949D01*
X167477927Y-41491982D01*
X167017291Y-41520037D01*
X166634056Y-41552383D01*
X166318154Y-41589289D01*
X166059517Y-41631021D01*
X165848075Y-41677847D01*
X165673760Y-41730037D01*
X165526505Y-41787857D01*
X165396239Y-41851575D01*
X165272895Y-41921461D01*
X165146405Y-41997780D01*
X165006699Y-42080802D01*
X165002977Y-42082950D01*
X164343796Y-42538572D01*
X163715668Y-43107294D01*
X163196357Y-43714178D01*
X162997926Y-44015156D01*
X162934704Y-44117878D01*
X162875522Y-44207061D01*
X162820247Y-44290516D01*
X162768748Y-44376053D01*
X162720892Y-44471481D01*
X162676547Y-44584611D01*
X162635582Y-44723254D01*
X162597864Y-44895218D01*
X162563260Y-45108315D01*
X162531641Y-45370354D01*
X162502872Y-45689146D01*
X162476822Y-46072500D01*
X162453359Y-46528227D01*
X162432351Y-47064137D01*
X162413666Y-47688040D01*
X162397171Y-48407746D01*
X162382736Y-49231065D01*
X162370227Y-50165807D01*
X162359513Y-51219783D01*
X162350461Y-52400803D01*
X162342940Y-53716676D01*
X162336817Y-55175213D01*
X162331961Y-56784224D01*
X162328240Y-58551519D01*
X162325520Y-60484908D01*
X162323671Y-62592202D01*
X162322561Y-64881210D01*
X162322056Y-67359742D01*
X162322026Y-70035610D01*
X158864784Y-70035610D01*
X158863963Y-69548210D01*
X158858956Y-67111685D01*
X158853152Y-64747801D01*
X158846551Y-62467673D01*
X158839153Y-60282410D01*
X158830961Y-58203126D01*
X158821973Y-56240932D01*
X158812192Y-54406941D01*
X158801617Y-52712264D01*
X158790249Y-51168014D01*
X158778089Y-49785303D01*
X158765138Y-48575242D01*
X158751396Y-47548945D01*
X158736864Y-46717523D01*
X158721543Y-46092088D01*
X158705433Y-45683752D01*
X158690528Y-45512424D01*
X158472381Y-44650551D01*
X158169816Y-43959879D01*
X157755244Y-43379982D01*
X157678009Y-43294870D01*
X157311428Y-42902442D01*
X157311428Y-40887824D01*
X157316432Y-40093357D01*
X157332445Y-39515979D01*
X157360963Y-39134472D01*
X157403483Y-38927616D01*
X157453576Y-38873205D01*
X157665400Y-38945848D01*
X158007744Y-39140172D01*
X158431673Y-39420766D01*
X158888251Y-39752222D01*
X159328546Y-40099128D01*
X159703621Y-40426077D01*
X159949300Y-40679134D01*
X160224733Y-40981222D01*
X160458773Y-41190724D01*
X160586350Y-41258181D01*
X160742147Y-41171971D01*
X160977461Y-40950829D01*
X161141678Y-40763204D01*
X161802790Y-40096451D01*
X162655941Y-39465361D01*
X163654770Y-38898858D01*
X164752914Y-38425862D01*
X165062601Y-38317211D01*
X166076216Y-37978839D01*
X189985606Y-37978839D01*
X192797252Y-37978901D01*
X195380454Y-37979149D01*
X197745266Y-37979672D01*
X199901742Y-37980562D01*
X201859936Y-37981908D01*
X203629902Y-37983802D01*
X205221694Y-37986334D01*
X206645365Y-37989595D01*
X207910970Y-37993674D01*
X209028562Y-37998663D01*
X210008196Y-38004652D01*
X210859925Y-38011731D01*
X211593802Y-38019992D01*
X212219883Y-38029524D01*
X212748221Y-38040419D01*
X213188870Y-38052766D01*
X213551883Y-38066657D01*
X213847315Y-38082181D01*
X214085219Y-38099430D01*
X214275650Y-38118494D01*
X214428661Y-38139463D01*
X214554306Y-38162428D01*
X214662639Y-38187480D01*
X214716134Y-38201542D01*
X215754186Y-38544295D01*
X216715809Y-38978769D01*
X217374697Y-39369160D01*
X217672506Y-39570657D01*
X217882463Y-39687052D01*
X218019281Y-39692966D01*
X218097674Y-39563022D01*
X218132358Y-39271844D01*
X218138045Y-38794053D01*
X218129450Y-38104273D01*
X218128969Y-38068275D01*
X218114352Y-36965224D01*
X220297631Y-36985270D01*
G37*
G36*
X192242291Y-67476590D02*
G01*
X194720262Y-67800970D01*
X195332407Y-67917229D01*
X197493160Y-68464697D01*
X199652179Y-69227371D01*
X201767533Y-70185371D01*
X203797288Y-71318818D01*
X205699511Y-72607831D01*
X206441944Y-73184045D01*
X207065939Y-73722590D01*
X207783238Y-74397241D01*
X208542236Y-75154677D01*
X209291329Y-75941576D01*
X209978913Y-76704617D01*
X210553382Y-77390479D01*
X210718453Y-77602800D01*
X212097134Y-79617907D01*
X213284993Y-81764901D01*
X214272970Y-84021252D01*
X215052003Y-86364430D01*
X215613032Y-88771906D01*
X215859541Y-90385569D01*
X215903062Y-90872103D01*
X215939756Y-91524328D01*
X215966595Y-92269471D01*
X215980552Y-93034755D01*
X215981850Y-93326037D01*
X215866970Y-95845773D01*
X215524636Y-98300144D01*
X214958308Y-100680767D01*
X214171444Y-102979260D01*
X213167506Y-105187239D01*
X211949952Y-107296322D01*
X210522242Y-109298125D01*
X208887836Y-111184266D01*
X208409550Y-111674613D01*
X206564345Y-113354547D01*
X204591726Y-114836523D01*
X202504431Y-116115553D01*
X200315200Y-117186651D01*
X198036773Y-118044829D01*
X195681890Y-118685101D01*
X193263290Y-119102478D01*
X190793713Y-119291975D01*
X188971991Y-119283776D01*
X186571796Y-119073304D01*
X184199975Y-118633075D01*
X181876051Y-117971666D01*
X179669001Y-117116809D01*
X185457463Y-117116809D01*
X185566403Y-117161163D01*
X185863291Y-117221102D01*
X186298832Y-117287776D01*
X186676451Y-117335667D01*
X187206667Y-117399007D01*
X187658808Y-117455545D01*
X187973382Y-117497704D01*
X188077625Y-117514145D01*
X188343594Y-117540011D01*
X188795060Y-117556007D01*
X189379249Y-117562704D01*
X190043389Y-117560673D01*
X190734707Y-117550485D01*
X191400430Y-117532709D01*
X191987785Y-117507916D01*
X192443999Y-117476677D01*
X192550454Y-117465784D01*
X193465220Y-117352191D01*
X194159446Y-117245847D01*
X194650822Y-117142698D01*
X194957039Y-117038689D01*
X195095785Y-116929766D01*
X195108344Y-116879508D01*
X195076904Y-116704535D01*
X194994097Y-116351666D01*
X194871787Y-115864888D01*
X194721836Y-115288185D01*
X194556107Y-114665541D01*
X194386463Y-114040941D01*
X194224766Y-113458371D01*
X194082879Y-112961814D01*
X193972666Y-112595257D01*
X193905989Y-112402683D01*
X193896284Y-112385448D01*
X193756515Y-112376544D01*
X193459476Y-112416769D01*
X193192914Y-112470427D01*
X192845205Y-112519695D01*
X192306340Y-112560496D01*
X191623537Y-112592014D01*
X190844014Y-112613433D01*
X190014990Y-112623937D01*
X189183682Y-112622710D01*
X188397310Y-112608935D01*
X187703091Y-112581798D01*
X187490447Y-112568979D01*
X186605147Y-112509355D01*
X186032961Y-114775083D01*
X185856614Y-115476446D01*
X185701972Y-116097342D01*
X185578014Y-116601242D01*
X185493715Y-116951618D01*
X185458054Y-117111945D01*
X185457463Y-117116809D01*
X179669001Y-117116809D01*
X179619544Y-117097653D01*
X177449974Y-116019612D01*
X175386864Y-114746120D01*
X175284738Y-114669129D01*
X178537719Y-114669129D01*
X178640662Y-114749137D01*
X178919849Y-114899280D01*
X179330816Y-115099310D01*
X179829096Y-115328980D01*
X180370227Y-115568042D01*
X180909742Y-115796250D01*
X181403176Y-115993355D01*
X181638188Y-116080945D01*
X182210814Y-116279449D01*
X182821265Y-116478700D01*
X183417936Y-116663241D01*
X183949222Y-116817614D01*
X184363517Y-116926362D01*
X184609216Y-116974028D01*
X184622506Y-116974839D01*
X184702200Y-116919683D01*
X184797647Y-116734086D01*
X184916175Y-116395624D01*
X185065112Y-115881873D01*
X185251788Y-115170410D01*
X185382216Y-114650364D01*
X185555290Y-113942300D01*
X185703270Y-113317901D01*
X185818231Y-112812218D01*
X185892250Y-112460303D01*
X185917402Y-112297210D01*
X185915739Y-112290233D01*
X185798536Y-112249112D01*
X194677930Y-112249112D01*
X194691910Y-112372695D01*
X194757610Y-112685183D01*
X194864647Y-113145210D01*
X195002636Y-113711411D01*
X195161191Y-114342422D01*
X195329929Y-114996877D01*
X195498463Y-115633412D01*
X195656410Y-116210660D01*
X195785414Y-116660459D01*
X195841734Y-116763688D01*
X195955876Y-116814336D01*
X196159244Y-116806995D01*
X196483246Y-116736257D01*
X196959289Y-116596713D01*
X197618780Y-116382957D01*
X197856028Y-116303906D01*
X198391342Y-116111567D01*
X198997553Y-115872169D01*
X199636451Y-115603355D01*
X200269822Y-115322768D01*
X200859456Y-115048052D01*
X201367140Y-114796852D01*
X201754664Y-114586810D01*
X201983814Y-114435570D01*
X202029737Y-114376768D01*
X201971376Y-114242625D01*
X201808719Y-113937310D01*
X201560402Y-113494021D01*
X201245064Y-112945960D01*
X200881342Y-112326325D01*
X200831381Y-112242086D01*
X199633024Y-110223968D01*
X198594804Y-110734586D01*
X198038559Y-110988265D01*
X197352791Y-111271796D01*
X196636131Y-111545570D01*
X196146784Y-111717631D01*
X195604805Y-111902232D01*
X195149491Y-112062946D01*
X194826265Y-112183338D01*
X194680553Y-112246971D01*
X194677930Y-112249112D01*
X185798536Y-112249112D01*
X185790615Y-112246333D01*
X185484475Y-112149376D01*
X185044926Y-112014207D01*
X184578846Y-111873418D01*
X183904575Y-111654888D01*
X183172522Y-111391458D01*
X182497403Y-111125359D01*
X182210428Y-111001531D01*
X181700830Y-110779279D01*
X181361465Y-110653396D01*
X181149723Y-110612646D01*
X181022993Y-110645794D01*
X180985364Y-110678511D01*
X180880854Y-110824207D01*
X180682478Y-111128213D01*
X180413819Y-111552082D01*
X180098457Y-112057366D01*
X179759975Y-112605618D01*
X179421954Y-113158392D01*
X179107975Y-113677240D01*
X178841620Y-114123715D01*
X178646471Y-114459370D01*
X178546108Y-114645759D01*
X178537719Y-114669129D01*
X175284738Y-114669129D01*
X173449734Y-113285753D01*
X171711179Y-111700391D01*
X170046322Y-109868588D01*
X168578525Y-107911865D01*
X168123626Y-107169776D01*
X170219127Y-107169776D01*
X170370167Y-107463820D01*
X170651002Y-107872727D01*
X171039918Y-108371962D01*
X171515201Y-108936989D01*
X172055137Y-109543273D01*
X172638011Y-110166278D01*
X173242110Y-110781469D01*
X173845719Y-111364309D01*
X174427124Y-111890263D01*
X174841005Y-112237026D01*
X175257816Y-112557716D01*
X175742943Y-112908985D01*
X176258217Y-113265878D01*
X176765468Y-113603444D01*
X177226529Y-113896728D01*
X177603229Y-114120777D01*
X177857400Y-114250639D01*
X177948428Y-114268525D01*
X178032343Y-114143205D01*
X178219801Y-113846620D01*
X178490550Y-113411354D01*
X178824333Y-112869994D01*
X179200897Y-112255124D01*
X179253418Y-112169062D01*
X179622936Y-111550590D01*
X179936286Y-111001449D01*
X180176484Y-110553517D01*
X180326548Y-110238669D01*
X180369495Y-110088781D01*
X180365248Y-110082208D01*
X180200454Y-109976243D01*
X179918084Y-109798962D01*
X179781963Y-109714329D01*
X178349613Y-108713667D01*
X176957114Y-107521342D01*
X175657202Y-106183837D01*
X175281893Y-105747741D01*
X174875546Y-105277038D01*
X174523834Y-104899617D01*
X174255322Y-104644144D01*
X174098569Y-104539289D01*
X174079145Y-104540502D01*
X173864233Y-104668697D01*
X173505884Y-104891057D01*
X173043609Y-105182249D01*
X172516917Y-105516941D01*
X171965320Y-105869800D01*
X171428326Y-106215492D01*
X170945446Y-106528686D01*
X170556191Y-106784048D01*
X170300070Y-106956246D01*
X170219597Y-107015132D01*
X170219127Y-107169776D01*
X168123626Y-107169776D01*
X167311502Y-105844938D01*
X166248969Y-103682527D01*
X165394639Y-101439347D01*
X165112915Y-100426654D01*
X166832028Y-100426654D01*
X166925671Y-100759441D01*
X167096607Y-101209462D01*
X167291462Y-101717336D01*
X167563508Y-102406870D01*
X167875866Y-103129156D01*
X168211809Y-103852488D01*
X168554613Y-104545160D01*
X168887552Y-105175466D01*
X169193899Y-105711700D01*
X169456931Y-106122155D01*
X169659921Y-106375127D01*
X169782921Y-106440332D01*
X169921422Y-106362224D01*
X170227245Y-106175308D01*
X170667400Y-105900220D01*
X171208899Y-105557598D01*
X171818752Y-105168080D01*
X171898752Y-105116731D01*
X173878380Y-103845397D01*
X173569197Y-103355621D01*
X173225338Y-102760550D01*
X172841514Y-102013728D01*
X172453138Y-101189675D01*
X172095621Y-100362911D01*
X171855662Y-99749731D01*
X171683332Y-99285157D01*
X171543254Y-98913667D01*
X171454656Y-98685937D01*
X171434400Y-98639640D01*
X171317636Y-98660381D01*
X171006494Y-98739493D01*
X170535273Y-98867603D01*
X169938267Y-99035338D01*
X169249774Y-99233324D01*
X169062883Y-99287761D01*
X168254184Y-99518674D01*
X167648088Y-99694957D01*
X167223709Y-99845251D01*
X166960162Y-99998203D01*
X166836563Y-100182456D01*
X166832028Y-100426654D01*
X165112915Y-100426654D01*
X164752229Y-99130118D01*
X164325452Y-96769556D01*
X164118024Y-94372380D01*
X164124546Y-93363241D01*
X165808963Y-93363241D01*
X165877814Y-95195982D01*
X166078593Y-97000259D01*
X166259037Y-98020623D01*
X166358803Y-98516502D01*
X166437355Y-98923881D01*
X166484055Y-99186673D01*
X166492359Y-99250959D01*
X166585647Y-99302687D01*
X166702273Y-99282717D01*
X166880162Y-99229283D01*
X167246194Y-99121193D01*
X167759520Y-98970445D01*
X168379288Y-98789038D01*
X168997812Y-98608459D01*
X169669237Y-98409362D01*
X170261494Y-98227477D01*
X170736375Y-98075045D01*
X171055671Y-97964309D01*
X171179535Y-97909438D01*
X171202183Y-97757059D01*
X171175321Y-97436944D01*
X171104913Y-97013317D01*
X171089119Y-96935989D01*
X170974674Y-96217240D01*
X170889540Y-95330081D01*
X170835946Y-94343056D01*
X170816117Y-93324711D01*
X170821835Y-92977635D01*
X172426785Y-92977635D01*
X172439682Y-94062210D01*
X172499788Y-95154183D01*
X172602879Y-96147914D01*
X172641505Y-96410763D01*
X172880988Y-97536549D01*
X173247365Y-98767921D01*
X173713886Y-100028052D01*
X174253797Y-101240118D01*
X174475475Y-101677504D01*
X175504405Y-103384119D01*
X176709945Y-104947073D01*
X178073846Y-106356570D01*
X179577859Y-107602815D01*
X181203733Y-108676014D01*
X182933219Y-109566371D01*
X184748068Y-110264091D01*
X186630030Y-110759381D01*
X188560856Y-111042444D01*
X190522296Y-111103486D01*
X191868475Y-111012721D01*
X193932258Y-110671986D01*
X195920705Y-110106350D01*
X196574893Y-109835952D01*
X200317397Y-109835952D01*
X200346576Y-109956746D01*
X200479475Y-110242475D01*
X200694213Y-110655330D01*
X200968910Y-111157503D01*
X201281685Y-111711183D01*
X201610656Y-112278562D01*
X201933944Y-112821830D01*
X202229666Y-113303179D01*
X202475943Y-113684798D01*
X202650894Y-113928878D01*
X202727179Y-113999965D01*
X202861651Y-113936493D01*
X203141455Y-113766645D01*
X203516860Y-113521271D01*
X203707799Y-113391640D01*
X204719778Y-112659866D01*
X205669242Y-111890363D01*
X206612055Y-111034132D01*
X207604083Y-110042174D01*
X207992179Y-109633720D01*
X208371213Y-109213646D01*
X208776310Y-108737305D01*
X209177341Y-108243552D01*
X209544178Y-107771245D01*
X209846695Y-107359238D01*
X210054764Y-107046389D01*
X210138257Y-106871553D01*
X210138658Y-106865354D01*
X210045881Y-106763408D01*
X209787207Y-106547518D01*
X209392124Y-106240514D01*
X208890116Y-105865225D01*
X208310670Y-105444481D01*
X208216588Y-105377212D01*
X206294518Y-104005779D01*
X205603614Y-104918600D01*
X204438503Y-106332484D01*
X203211120Y-107565448D01*
X201863979Y-108675021D01*
X201809464Y-108715664D01*
X201307641Y-109089255D01*
X200871817Y-109415177D01*
X200539065Y-109665593D01*
X200346461Y-109812666D01*
X200317397Y-109835952D01*
X196574893Y-109835952D01*
X197823800Y-109319736D01*
X199631526Y-108316065D01*
X200791082Y-107519123D01*
X201244536Y-107159792D01*
X201739704Y-106731475D01*
X202246297Y-106264763D01*
X202734025Y-105790245D01*
X203172597Y-105338511D01*
X203531725Y-104940150D01*
X203781118Y-104625752D01*
X203890488Y-104425906D01*
X203890293Y-104389225D01*
X203884332Y-104270241D01*
X203934759Y-104279357D01*
X204059176Y-104226409D01*
X204269231Y-104007193D01*
X204536769Y-103665041D01*
X204729633Y-103391039D01*
X206704196Y-103391039D01*
X206807998Y-103488379D01*
X207076245Y-103700812D01*
X207478775Y-104005549D01*
X207985430Y-104379806D01*
X208566048Y-104800795D01*
X208648047Y-104859674D01*
X210556028Y-106228116D01*
X210763106Y-105970144D01*
X210889817Y-105772442D01*
X211095481Y-105406824D01*
X211354880Y-104919918D01*
X211642794Y-104358352D01*
X211741089Y-104161937D01*
X212117114Y-103372102D01*
X212463527Y-102580894D01*
X212768833Y-101821082D01*
X213021534Y-101125436D01*
X213210133Y-100526723D01*
X213323133Y-100057715D01*
X213349038Y-99751178D01*
X213320117Y-99661336D01*
X213175279Y-99584222D01*
X212846445Y-99454433D01*
X212378462Y-99286465D01*
X211816176Y-99094817D01*
X211204436Y-98893984D01*
X210588087Y-98698464D01*
X210011977Y-98522754D01*
X209520952Y-98381351D01*
X209159860Y-98288752D01*
X208982316Y-98259120D01*
X208884642Y-98364649D01*
X208745800Y-98645327D01*
X208591213Y-99047290D01*
X208544537Y-99186657D01*
X208261023Y-99996484D01*
X207931178Y-100832581D01*
X207584405Y-101626765D01*
X207250104Y-102310854D01*
X207023949Y-102712776D01*
X206836015Y-103044031D01*
X206721909Y-103296052D01*
X206704196Y-103391039D01*
X204729633Y-103391039D01*
X204833634Y-103243285D01*
X205131671Y-102785257D01*
X205402725Y-102334290D01*
X205618640Y-101933715D01*
X205751262Y-101626865D01*
X205772435Y-101457071D01*
X205770637Y-101453859D01*
X205763525Y-101378018D01*
X205813197Y-101399126D01*
X205914455Y-101334011D01*
X206069899Y-101078190D01*
X206264555Y-100669208D01*
X206483449Y-100144610D01*
X206711609Y-99541940D01*
X206934062Y-98898744D01*
X207135834Y-98252566D01*
X207285162Y-97708243D01*
X207330124Y-97475008D01*
X209084630Y-97475008D01*
X209090756Y-97489466D01*
X209218564Y-97543341D01*
X209536281Y-97655878D01*
X210006252Y-97814352D01*
X210590824Y-98006039D01*
X211165106Y-98190488D01*
X212065654Y-98471141D01*
X212756142Y-98672367D01*
X213250204Y-98797456D01*
X213561474Y-98849699D01*
X213703585Y-98832387D01*
X213716122Y-98806230D01*
X213736932Y-98673757D01*
X213791913Y-98368838D01*
X213869892Y-97953176D01*
X213883463Y-97882052D01*
X214122638Y-96294966D01*
X214261450Y-94610689D01*
X214290939Y-92952320D01*
X214277016Y-92475552D01*
X214236676Y-91768530D01*
X214174928Y-91018576D01*
X214097469Y-90270119D01*
X214009993Y-89567587D01*
X213918195Y-88955409D01*
X213827772Y-88478013D01*
X213744417Y-88179829D01*
X213719847Y-88128997D01*
X213626324Y-88092971D01*
X213406384Y-88110656D01*
X213037473Y-88187056D01*
X212497036Y-88327172D01*
X211762518Y-88536003D01*
X211390063Y-88645602D01*
X210697730Y-88852784D01*
X210086498Y-89039449D01*
X209592208Y-89194342D01*
X209250700Y-89306211D01*
X209097815Y-89363801D01*
X209093767Y-89366608D01*
X209086841Y-89503428D01*
X209123134Y-89808379D01*
X209194829Y-90216620D01*
X209198342Y-90234276D01*
X209267030Y-90733868D01*
X209317259Y-91416328D01*
X209349040Y-92226743D01*
X209362383Y-93110198D01*
X209357299Y-94011780D01*
X209333798Y-94876575D01*
X209291890Y-95649670D01*
X209231585Y-96276152D01*
X209197171Y-96502767D01*
X209126117Y-96945000D01*
X209086426Y-97289268D01*
X209084630Y-97475008D01*
X207330124Y-97475008D01*
X207673627Y-95693124D01*
X207826588Y-93670254D01*
X207745973Y-91654383D01*
X207433711Y-89660258D01*
X206891732Y-87702631D01*
X206121964Y-85796249D01*
X205590871Y-84754293D01*
X204854045Y-83585295D01*
X206806216Y-83585295D01*
X207312658Y-84572207D01*
X207658884Y-85260730D01*
X207923138Y-85828421D01*
X208141185Y-86361864D01*
X208348787Y-86947638D01*
X208545379Y-87556538D01*
X208715943Y-88047154D01*
X208872599Y-88403842D01*
X208996256Y-88585406D01*
X209028922Y-88599965D01*
X209188828Y-88567377D01*
X209537365Y-88476910D01*
X210034811Y-88339510D01*
X210641447Y-88166122D01*
X211241420Y-87990284D01*
X211911161Y-87789940D01*
X212505450Y-87608636D01*
X212984831Y-87458694D01*
X213309847Y-87352432D01*
X213437273Y-87304604D01*
X213468328Y-87158792D01*
X213413388Y-86829904D01*
X213284359Y-86352341D01*
X213093146Y-85760505D01*
X212851654Y-85088797D01*
X212571788Y-84371620D01*
X212265453Y-83643375D01*
X211944554Y-82938464D01*
X211879223Y-82802376D01*
X211603383Y-82243187D01*
X211357707Y-81763486D01*
X211163335Y-81403187D01*
X211041409Y-81202208D01*
X211017375Y-81175189D01*
X210877669Y-81212200D01*
X210555233Y-81367923D01*
X210068027Y-81632218D01*
X209434012Y-81994942D01*
X208671151Y-82445953D01*
X207797404Y-82975109D01*
X207429010Y-83201368D01*
X206806216Y-83585295D01*
X204854045Y-83585295D01*
X204544047Y-83093474D01*
X203308233Y-81560365D01*
X201905013Y-80170689D01*
X200355969Y-78940173D01*
X198682685Y-77884541D01*
X196906742Y-77019518D01*
X196287976Y-76800040D01*
X200542310Y-76800040D01*
X200577761Y-76931257D01*
X200765878Y-77145058D01*
X201121841Y-77455750D01*
X201660828Y-77877640D01*
X201785388Y-77971707D01*
X203120071Y-79082436D01*
X204383188Y-80340740D01*
X205499625Y-81670414D01*
X205708601Y-81951843D01*
X206010493Y-82350296D01*
X206271640Y-82662482D01*
X206454984Y-82845684D01*
X206510367Y-82876022D01*
X206651056Y-82817812D01*
X206960705Y-82656223D01*
X207403904Y-82410817D01*
X207945244Y-82101155D01*
X208479725Y-81788054D01*
X209082603Y-81428315D01*
X209620149Y-81102212D01*
X210056008Y-80832227D01*
X210353823Y-80640841D01*
X210472031Y-80556055D01*
X210519786Y-80451712D01*
X210474291Y-80279443D01*
X210318034Y-80002753D01*
X210033504Y-79585152D01*
X209949795Y-79467732D01*
X208522409Y-77634305D01*
X207012808Y-76008260D01*
X205398149Y-74565988D01*
X204627852Y-73968154D01*
X204015064Y-73515638D01*
X203564023Y-73191288D01*
X203246685Y-72978839D01*
X203035006Y-72862027D01*
X202900940Y-72824588D01*
X202816443Y-72850256D01*
X202774607Y-72893349D01*
X202671077Y-73054128D01*
X202476416Y-73379062D01*
X202214800Y-73825835D01*
X201910410Y-74352135D01*
X201587424Y-74915645D01*
X201270020Y-75474053D01*
X200982376Y-75985044D01*
X200748672Y-76406304D01*
X200593085Y-76695519D01*
X200542310Y-76800040D01*
X196287976Y-76800040D01*
X195049724Y-76360829D01*
X193582225Y-76004931D01*
X192136252Y-75794811D01*
X190597430Y-75698043D01*
X189046534Y-75714505D01*
X187564341Y-75844075D01*
X186545967Y-76015493D01*
X184588519Y-76544987D01*
X182731753Y-77280194D01*
X180988035Y-78207067D01*
X179369735Y-79311560D01*
X177889220Y-80579627D01*
X176558859Y-81997223D01*
X175391021Y-83550301D01*
X174398073Y-85224815D01*
X173592384Y-87006720D01*
X172986322Y-88881969D01*
X172592256Y-90836516D01*
X172465323Y-92006096D01*
X172426785Y-92977635D01*
X170821835Y-92977635D01*
X170832280Y-92343590D01*
X170886662Y-91468238D01*
X170905475Y-91283064D01*
X170990296Y-90527086D01*
X171046489Y-89973996D01*
X171065966Y-89589071D01*
X171040635Y-89337588D01*
X170962407Y-89184822D01*
X170823193Y-89096052D01*
X170614904Y-89036553D01*
X170369174Y-88981099D01*
X169978022Y-88887788D01*
X169425471Y-88754517D01*
X168781718Y-88598281D01*
X168116961Y-88436074D01*
X168043822Y-88418168D01*
X167460208Y-88277972D01*
X166966181Y-88164489D01*
X166604381Y-88087115D01*
X166417445Y-88055247D01*
X166401458Y-88056253D01*
X166342536Y-88216105D01*
X166267246Y-88569965D01*
X166181973Y-89074430D01*
X166093100Y-89686098D01*
X166007015Y-90361566D01*
X165930101Y-91057432D01*
X165878508Y-91610998D01*
X165808963Y-93363241D01*
X164124546Y-93363241D01*
X164133659Y-91953307D01*
X164376072Y-89527054D01*
X164836517Y-87172073D01*
X166612836Y-87172073D01*
X166647325Y-87246497D01*
X166764314Y-87327462D01*
X166984086Y-87420842D01*
X167326924Y-87532511D01*
X167813111Y-87668342D01*
X168462931Y-87834210D01*
X169296665Y-88035986D01*
X170334598Y-88279547D01*
X170846169Y-88397993D01*
X171180652Y-88458470D01*
X171342143Y-88432322D01*
X171382789Y-88317745D01*
X171424418Y-88122998D01*
X171531805Y-87791629D01*
X171636076Y-87512816D01*
X171810437Y-87071238D01*
X172026541Y-86524423D01*
X172238338Y-85988888D01*
X172243244Y-85976491D01*
X172482406Y-85412031D01*
X172762791Y-84807954D01*
X173011180Y-84318874D01*
X173224182Y-83905057D01*
X173323141Y-83643432D01*
X173321940Y-83484906D01*
X173268566Y-83408640D01*
X173118071Y-83306433D01*
X172794048Y-83110853D01*
X172332347Y-82842722D01*
X171768822Y-82522863D01*
X171144291Y-82174844D01*
X170455016Y-81796195D01*
X169943518Y-81522674D01*
X169579984Y-81341991D01*
X169334603Y-81241854D01*
X169177562Y-81209973D01*
X169079047Y-81234055D01*
X169013474Y-81296345D01*
X168816624Y-81604652D01*
X168565314Y-82083416D01*
X168276414Y-82691347D01*
X167966791Y-83387157D01*
X167653317Y-84129557D01*
X167352860Y-84877255D01*
X167082290Y-85588965D01*
X166858476Y-86223396D01*
X166698289Y-86739258D01*
X166618597Y-87095264D01*
X166612836Y-87172073D01*
X164836517Y-87172073D01*
X164848978Y-87108339D01*
X165187963Y-85855949D01*
X165984909Y-83587439D01*
X167000134Y-81395670D01*
X167534668Y-80477712D01*
X169474975Y-80477712D01*
X170697192Y-81159182D01*
X171299300Y-81496119D01*
X171936153Y-81854498D01*
X172515594Y-82182372D01*
X172813775Y-82352229D01*
X173224196Y-82583705D01*
X173551493Y-82762151D01*
X173744192Y-82859755D01*
X173771867Y-82869914D01*
X173868476Y-82782401D01*
X174021927Y-82559837D01*
X174046453Y-82519064D01*
X174225419Y-82262972D01*
X174530184Y-81874754D01*
X174924169Y-81396968D01*
X175370794Y-80872171D01*
X175833480Y-80342922D01*
X176275648Y-79851778D01*
X176660717Y-79441297D01*
X176884155Y-79217597D01*
X177188095Y-78943497D01*
X177580426Y-78613158D01*
X178018315Y-78259761D01*
X178458926Y-77916484D01*
X178859426Y-77616508D01*
X179176980Y-77393012D01*
X179368752Y-77279176D01*
X179396762Y-77271327D01*
X179490698Y-77182017D01*
X179491709Y-77166795D01*
X179427184Y-77049860D01*
X179250289Y-76774375D01*
X178986048Y-76376737D01*
X178659484Y-75893345D01*
X178295619Y-75360594D01*
X177919475Y-74814883D01*
X177556077Y-74292610D01*
X177230446Y-73830171D01*
X176967605Y-73463965D01*
X176792577Y-73230388D01*
X176751195Y-73180509D01*
X176617099Y-73200575D01*
X176336745Y-73357656D01*
X175940221Y-73628197D01*
X175457618Y-73988646D01*
X174919024Y-74415447D01*
X174354529Y-74885046D01*
X173794223Y-75373889D01*
X173268194Y-75858422D01*
X173009190Y-76109781D01*
X171930834Y-77234699D01*
X170998159Y-78334747D01*
X170143239Y-79491141D01*
X169973754Y-79739073D01*
X169474975Y-80477712D01*
X167534668Y-80477712D01*
X168220395Y-79300108D01*
X169632452Y-77320219D01*
X171223064Y-75475470D01*
X172978991Y-73785328D01*
X173946639Y-72979062D01*
X174221641Y-72781597D01*
X177368593Y-72781597D01*
X177445427Y-72917970D01*
X177638080Y-73216927D01*
X177924924Y-73646147D01*
X178284327Y-74173305D01*
X178694662Y-74766080D01*
X178740899Y-74832355D01*
X180076943Y-76745966D01*
X181423998Y-76081925D01*
X182076011Y-75777270D01*
X182784674Y-75473245D01*
X183453083Y-75210168D01*
X183873727Y-75062680D01*
X184398357Y-74885230D01*
X184730946Y-74747170D01*
X184910226Y-74627673D01*
X184974927Y-74505911D01*
X184977032Y-74478686D01*
X194552236Y-74478686D01*
X194553908Y-74485951D01*
X194678906Y-74535966D01*
X194981721Y-74636761D01*
X195411382Y-74771755D01*
X195734946Y-74870110D01*
X196211591Y-75026323D01*
X196784324Y-75234068D01*
X197405953Y-75473879D01*
X198029288Y-75726290D01*
X198607136Y-75971834D01*
X199092306Y-76191046D01*
X199437608Y-76364460D01*
X199580665Y-76456447D01*
X199771980Y-76526386D01*
X199819162Y-76519017D01*
X199914888Y-76408027D01*
X200108605Y-76122259D01*
X200379923Y-75693980D01*
X200708453Y-75155458D01*
X201073807Y-74538958D01*
X201116068Y-74466569D01*
X201536431Y-73754850D01*
X201845200Y-73220628D01*
X202035207Y-72826982D01*
X202099282Y-72536989D01*
X202030260Y-72313726D01*
X201820971Y-72120270D01*
X201464249Y-71919699D01*
X200952924Y-71675090D01*
X200535412Y-71475548D01*
X200020594Y-71240875D01*
X199396897Y-70980888D01*
X198708294Y-70711293D01*
X197998753Y-70447797D01*
X197312245Y-70206106D01*
X196692740Y-70001927D01*
X196184209Y-69850967D01*
X195830623Y-69768933D01*
X195729018Y-69758651D01*
X195647904Y-69787028D01*
X195569714Y-69891207D01*
X195485698Y-70099760D01*
X195387102Y-70441261D01*
X195265176Y-70944279D01*
X195111167Y-71637389D01*
X195011494Y-72101172D01*
X194861671Y-72814720D01*
X194733997Y-73444873D01*
X194635310Y-73956003D01*
X194572444Y-74312483D01*
X194552236Y-74478686D01*
X184977032Y-74478686D01*
X184977783Y-74468979D01*
X184953756Y-74199070D01*
X184886101Y-73772890D01*
X184784540Y-73233287D01*
X184658797Y-72623109D01*
X184518594Y-71985202D01*
X184373653Y-71362414D01*
X184233698Y-70797592D01*
X184108451Y-70333584D01*
X184007635Y-70013236D01*
X183940973Y-69879397D01*
X183935998Y-69877900D01*
X183702428Y-69919912D01*
X183295789Y-70034862D01*
X182764051Y-70206122D01*
X182155186Y-70417061D01*
X181517166Y-70651051D01*
X180897960Y-70891463D01*
X180345541Y-71121668D01*
X180336005Y-71125834D01*
X179585376Y-71466360D01*
X178897724Y-71801435D01*
X178302750Y-72114485D01*
X177830157Y-72388938D01*
X177509644Y-72608220D01*
X177370915Y-72755760D01*
X177368593Y-72781597D01*
X174221641Y-72781597D01*
X175959543Y-71533696D01*
X178077637Y-70298411D01*
X179417202Y-69678879D01*
X184778680Y-69678879D01*
X184789080Y-69801817D01*
X184841583Y-70114852D01*
X184927374Y-70575083D01*
X185037640Y-71139609D01*
X185163566Y-71765527D01*
X185296338Y-72409935D01*
X185427144Y-73029933D01*
X185547168Y-73582619D01*
X185647597Y-74025090D01*
X185719617Y-74314445D01*
X185749656Y-74405121D01*
X185884099Y-74425161D01*
X186186130Y-74394817D01*
X186591748Y-74320688D01*
X186612783Y-74316129D01*
X187051465Y-74246809D01*
X187678765Y-74184489D01*
X188444822Y-74132961D01*
X189299778Y-74096017D01*
X189627859Y-74086822D01*
X190661478Y-74072117D01*
X191498290Y-74083708D01*
X192178690Y-74123079D01*
X192743075Y-74191710D01*
X192815428Y-74203789D01*
X193298869Y-74282963D01*
X193597356Y-74315061D01*
X193759937Y-74299091D01*
X193835662Y-74234058D01*
X193856317Y-74182716D01*
X193910643Y-73972386D01*
X193998566Y-73591658D01*
X194111057Y-73083542D01*
X194239088Y-72491050D01*
X194373631Y-71857190D01*
X194505659Y-71224974D01*
X194626144Y-70637413D01*
X194726057Y-70137515D01*
X194796371Y-69768293D01*
X194828058Y-69572755D01*
X194828109Y-69552954D01*
X194703687Y-69523086D01*
X194394896Y-69469163D01*
X193953609Y-69399865D01*
X193612559Y-69349573D01*
X191512378Y-69130931D01*
X189504596Y-69090075D01*
X188297629Y-69156881D01*
X187659255Y-69219844D01*
X186991205Y-69297882D01*
X186338363Y-69384335D01*
X185745610Y-69472547D01*
X185257828Y-69555859D01*
X184919899Y-69627615D01*
X184778680Y-69678879D01*
X179417202Y-69678879D01*
X180287478Y-69276387D01*
X182575619Y-68470809D01*
X184928616Y-67884858D01*
X187333023Y-67521716D01*
X189775397Y-67384566D01*
X192242291Y-67476590D01*
G37*
%TD*%
M02*
